<?xml version="1.0" standalone="no"?>
<!DOCTYPE svg PUBLIC "-//W3C//DTD SVG 1.1//EN" "http://www.w3.org/Graphics/SVG/1.1/DTD/svg11.dtd" >
<svg xmlns="http://www.w3.org/2000/svg" xmlns:xlink="http://www.w3.org/1999/xlink" version="1.1">
<metadata>
Created by FontForge 20161013 at Fri Mar  3 17:32:43 2006
 By ,,,
Copyright 2006 House Industries/Brand Design Co., Inc. All Rights Reserved.
</metadata>
<defs>
<font id="UnitedSansReg-Black" horiz-adv-x="617" >
  <font-face 
    font-family="United Sans Rg Bk"
    font-weight="800"
    font-stretch="normal"
    units-per-em="1000"
    panose-1="0 0 0 0 0 0 0 0 0 0"
    ascent="760"
    descent="-240"
    x-height="513"
    cap-height="690"
    bbox="-59 -181 1230 899"
    underline-thickness="50"
    underline-position="-200"
    unicode-range="U+0020-FB02"
  />
<missing-glyph horiz-adv-x="787" 
d="M30 776h727v-862h-727v862zM261 343v-145h190v58l16 17h125l85 85v232l-100 100h-376l-97 -97v-121h190v60l22 22h147l25 -25v-91l-17 -17h-132zM261 142v-142h190v142h-190z" />
    <glyph glyph-name=".notdef" horiz-adv-x="787" 
d="M30 776h727v-862h-727v862zM261 343v-145h190v58l16 17h125l85 85v232l-100 100h-376l-97 -97v-121h190v60l22 22h147l25 -25v-91l-17 -17h-132zM261 142v-142h190v142h-190z" />
    <glyph glyph-name=".null" horiz-adv-x="0" 
 />
    <glyph glyph-name="nonmarkingreturn" horiz-adv-x="333" 
 />
    <glyph glyph-name="space" unicode=" " horiz-adv-x="245" 
 />
    <glyph glyph-name="exclam" unicode="!" horiz-adv-x="312" 
d="M61 199v491h190v-491h-190zM61 0v142h190v-142h-190z" />
    <glyph glyph-name="quotedbl" unicode="&#x22;" horiz-adv-x="372" 
d="M213 399v291h132v-291h-132zM28 399v291h131v-291h-131z" />
    <glyph glyph-name="numbersign" unicode="#" horiz-adv-x="588" 
d="M103 145v101h-80v116h80v111h-80v117h80v100h138v-100h106v100h138v-100h81v-117h-81v-111h81v-116h-81v-101h-138v101h-106v-101h-138zM241 362h106v111h-106v-111z" />
    <glyph glyph-name="dollar" unicode="$" horiz-adv-x="656" 
d="M136 19l-97 97v101h189v-43l19 -19h160l20 21v81l-15 15h-285l-85 86v213l100 101h101v101h175v-101h100l97 -98v-101h-189v44l-19 19h-155l-20 -21v-78l15 -16h285l85 -85v-217l-100 -100h-99v-102h-175v102h-107z" />
    <glyph glyph-name="percent" unicode="%" horiz-adv-x="853" 
d="M88 347l-72 72v200l71 71h207l71 -71v-201l-71 -71h-206zM155 437h72l16 16v134l-16 16h-72l-17 -16v-134zM559 0l-71 71v201l71 71h206l72 -72v-200l-71 -71h-207zM626 88h72l17 16v134l-17 16h-72l-16 -16v-134zM155 0l419 690h124l-419 -690h-124z" />
    <glyph glyph-name="ampersand" unicode="&#x26;" horiz-adv-x="679" 
d="M136 0l-96 96v176l80 80l-78 79v163l95 96h380l97 -97v-98h-190v42l-21 21h-148l-24 -23v-99l24 -23h419v-131h-62v-186l-96 -96h-380zM253 132h146l23 23v127h-169l-23 -24v-103z" />
    <glyph glyph-name="quotesingle" unicode="'" horiz-adv-x="186" 
d="M28 399v291h131v-291h-131z" />
    <glyph glyph-name="parenleft" unicode="(" horiz-adv-x="374" 
d="M162 -71l-106 107v617l106 107h187v-140h-73l-34 -34v-483l34 -34h73v-140h-187z" />
    <glyph glyph-name="parenright" unicode=")" horiz-adv-x="374" 
d="M319 36l-107 -107h-187v140h73l34 34v483l-34 34h-73v140h187l107 -107v-617z" />
    <glyph glyph-name="asterisk" unicode="*" horiz-adv-x="357" 
d="M136 351l-108 79l86 72l-109 11l43 127l89 -62l-29 112h140l-29 -112l90 62l43 -127l-110 -11l86 -72l-108 -79l-42 104z" />
    <glyph glyph-name="plus" unicode="+" horiz-adv-x="414" 
d="M13 277v137h123v125h143v-125h122v-137h-122v-126h-143v126h-123z" />
    <glyph glyph-name="comma" unicode="," horiz-adv-x="230" 
d="M31 -123v66h66l5 5v52h-71v173h169v-238l-58 -58h-111z" />
    <glyph glyph-name="hyphen" unicode="-" horiz-adv-x="307" 
d="M13 274v147h281v-147h-281z" />
    <glyph glyph-name="period" unicode="." horiz-adv-x="230" 
d="M31 0v173h169v-173h-169z" />
    <glyph glyph-name="slash" unicode="/" horiz-adv-x="386" 
d="M-16 -72l249 833h169l-249 -833h-169z" />
    <glyph glyph-name="zero" unicode="0" horiz-adv-x="681" 
d="M151 0l-106 106v478l106 106h378l107 -106v-478l-107 -106h-378zM269 139h143l34 34v344l-34 34h-143l-34 -34v-344z" />
    <glyph glyph-name="one" unicode="1" horiz-adv-x="515" 
d="M45 0v141h127v408h-127v141h317v-549h128v-141h-445z" />
    <glyph glyph-name="two" unicode="2" horiz-adv-x="637" 
d="M44 0v312l85 86h270l16 15v125l-14 13h-152l-14 -13v-64h-190v119l98 97h361l101 -100v-255l-86 -85h-270l-16 -16v-88h372v-146h-561z" />
    <glyph glyph-name="three" unicode="3" horiz-adv-x="667" 
d="M129 0l-95 96v124h189v-67l22 -21h169l24 23v104l-24 23h-259v137h258l23 24v90l-23 23h-168l-22 -21v-62h-189v121l95 96h401l96 -96v-163l-79 -78l80 -81v-176l-95 -96h-403z" />
    <glyph glyph-name="four" unicode="4" horiz-adv-x="653" 
d="M385 0v171h-372v112l130 407h173l-100 -372h169v372h188v-372h65v-147h-65v-171h-188z" />
    <glyph glyph-name="five" unicode="5" horiz-adv-x="648" 
d="M142 0l-97 97v117h189v-58l19 -19h148l21 20v153l-16 16h-146l-36 -37h-179v401h554v-144h-365v-132l49 48h236l93 -92v-270l-101 -100h-369z" />
    <glyph glyph-name="six" unicode="6" horiz-adv-x="680" 
d="M145 0l-100 100v490l100 100h400l97 -97v-105h-190v45l-22 21h-164l-31 -30v-140l50 51h260l97 -97v-238l-100 -100h-397zM260 136h167l25 25v117l-21 21h-174l-22 -23v-115z" />
    <glyph glyph-name="seven" unicode="7" horiz-adv-x="562" 
d="M164 0v258l164 280h-315v152h539v-118l-198 -331v-241h-190z" />
    <glyph glyph-name="eight" unicode="8" horiz-adv-x="682" 
d="M136 0l-96 96v176l80 81l-78 78v163l95 96h408l96 -96v-163l-79 -78l80 -81v-176l-96 -96h-410zM255 130h173l24 25v107l-24 25h-173l-25 -25v-107zM256 415h170l25 25v96l-25 25h-170l-25 -25v-96z" />
    <glyph glyph-name="nine" unicode="9" horiz-adv-x="679" 
d="M136 0l-97 97v110h189v-49l22 -22h163l31 31v144l-50 -50h-259l-96 97v232l100 100h395l100 -100v-490l-100 -100h-398zM250 397h172l22 22v110l-25 25h-166l-25 -25v-111z" />
    <glyph glyph-name="colon" unicode=":" horiz-adv-x="252" 
d="M42 0v173h169v-173h-169zM42 278v173h169v-173h-169z" />
    <glyph glyph-name="semicolon" unicode=";" horiz-adv-x="249" 
d="M42 -123v66h66l5 5v52h-71v173h169v-238l-58 -58h-111zM42 278v173h169v-173h-169z" />
    <glyph glyph-name="less" unicode="&#x3c;" horiz-adv-x="443" 
d="M404 105l-387 156v169l387 156v-156l-245 -85l245 -84v-156z" />
    <glyph glyph-name="equal" unicode="=" horiz-adv-x="378" 
d="M25 371v137h328v-137h-328zM25 175v137h328v-137h-328z" />
    <glyph glyph-name="greater" unicode="&#x3e;" horiz-adv-x="443" 
d="M427 261l-388 -156v156l245 84l-245 85v156l388 -156v-169z" />
    <glyph glyph-name="question" unicode="?" horiz-adv-x="608" 
d="M169 198v145l78 78h132l17 17v91l-25 25h-147l-22 -22v-60h-190v121l97 97h376l100 -100v-232l-85 -85h-125l-16 -17v-58h-190zM169 0v142h190v-142h-190z" />
    <glyph glyph-name="at" unicode="@" horiz-adv-x="1028" 
d="M190 -168l-145 145v562l145 145h648l145 -145v-443l-96 -96h-262l-8 67l-68 -67h-217l-86 86v138l86 86h251v78l-17 17h-110l-9 -8v-35h-186v67l84 84h322l96 -96v-313h46l22 22v366l-75 75h-482l-75 -75v-466l75 -75h496v-119h-580zM440 113h108l35 35v72h-143l-14 -14
v-79z" />
    <glyph glyph-name="A" unicode="A" horiz-adv-x="653" 
d="M4 0l181 690h283l182 -690h-197l-31 135h-207l-31 -135h-180zM320 581l-72 -306h142z" />
    <glyph glyph-name="B" unicode="B" horiz-adv-x="681" 
d="M59 0v690h484l96 -96v-163l-79 -78l81 -81v-176l-96 -96h-486zM249 131h177l25 25v107l-23 24h-179v-156zM249 416h177l23 23v96l-24 25h-176v-144z" />
    <glyph glyph-name="C" unicode="C" horiz-adv-x="662" 
d="M151 0l-106 106v478l106 106h371l107 -106v-145h-190v81l-31 31h-139l-34 -34v-348l34 -33h139l31 30v87h190v-147l-107 -106h-371z" />
    <glyph glyph-name="D" unicode="D" horiz-adv-x="683" 
d="M55 0v690h476l107 -106v-478l-107 -106h-476zM244 139h170l34 34v344l-34 34h-170v-412z" />
    <glyph glyph-name="E" unicode="E" horiz-adv-x="582" 
d="M55 0v690h485v-143h-296v-124h267v-143h-267v-137h298v-143h-487z" />
    <glyph glyph-name="F" unicode="F" horiz-adv-x="549" 
d="M55 0v690h473v-143h-284v-145h255v-142h-255v-260h-189z" />
    <glyph glyph-name="G" unicode="G" horiz-adv-x="678" 
d="M151 0l-106 106v478l106 106h387l100 -100v-120h-190v59l-21 22h-158l-34 -34v-351l34 -33h158l21 21v97h-140v138h330v-289l-100 -100h-387z" />
    <glyph glyph-name="H" unicode="H" horiz-adv-x="689" 
d="M55 0v690h189v-272h201v272h190v-690h-190v253h-201v-253h-189z" />
    <glyph glyph-name="I" unicode="I" horiz-adv-x="483" 
d="M32 0v131h114v429h-114v130h419v-130h-115v-429h115v-131h-419z" />
    <glyph glyph-name="J" unicode="J" horiz-adv-x="437" 
d="M22 0v146h142l34 33v511h190v-584l-107 -106h-259z" />
    <glyph glyph-name="K" unicode="K" horiz-adv-x="680" 
d="M455 0l-119 265l-92 -143v-122h-189v690h189v-335l202 335h211l-185 -281l193 -409h-210z" />
    <glyph glyph-name="L" unicode="L" horiz-adv-x="515" 
d="M55 0v690h189v-539h252v-151h-441z" />
    <glyph glyph-name="M" unicode="M" horiz-adv-x="965" 
d="M55 0v690h287l140 -516l141 516h287v-690h-180v548l-154 -548h-211l-150 548v-548h-160z" />
    <glyph glyph-name="N" unicode="N" horiz-adv-x="690" 
d="M55 0v690h192l220 -405v405h168v-690h-194l-218 411v-411h-168z" />
    <glyph glyph-name="O" unicode="O" horiz-adv-x="681" 
d="M151 0l-106 106v478l106 106h378l107 -106v-478l-107 -106h-378zM269 139h143l34 34v344l-34 34h-143l-34 -34v-344z" />
    <glyph glyph-name="P" unicode="P" horiz-adv-x="659" 
d="M55 0v690h478l106 -106v-255l-106 -107h-289v-222h-189zM244 354h177l28 28v148l-28 28h-177v-204z" />
    <glyph glyph-name="Q" unicode="Q" horiz-adv-x="681" 
d="M483 -176l-111 111v65h-221l-106 106v478l106 106h378l107 -106v-478l-107 -106v-5l63 -63zM269 139h143l34 34v344l-34 34h-143l-34 -34v-344z" />
    <glyph glyph-name="R" unicode="R" horiz-adv-x="672" 
d="M55 0v690h486l101 -100v-219l-88 -87l103 -284h-197l-87 256h-129v-256h-189zM244 386h181l27 28v120l-27 27h-181v-175z" />
    <glyph glyph-name="S" unicode="S" horiz-adv-x="656" 
d="M136 0l-97 97v118h189v-57l22 -21h157l20 20v100l-15 15h-285l-85 86v232l100 100h376l97 -97v-118h-189v57l-22 22h-152l-20 -21v-96l15 -16h285l85 -85v-236l-100 -100h-381z" />
    <glyph glyph-name="T" unicode="T" horiz-adv-x="590" 
d="M200 0v538h-184v152h559v-152h-185v-538h-190z" />
    <glyph glyph-name="U" unicode="U" horiz-adv-x="675" 
d="M156 0l-107 106v584h190v-512l34 -34h129l34 34v512h190v-584l-106 -106h-364z" />
    <glyph glyph-name="V" unicode="V" horiz-adv-x="615" 
d="M165 0l-158 690h197l112 -551l112 551h181l-159 -690h-285z" />
    <glyph glyph-name="W" unicode="W" horiz-adv-x="935" 
d="M131 0l-126 690h179l75 -515l98 515h242l98 -515l75 515h158l-126 -690h-235l-99 520l-99 -520h-240z" />
    <glyph glyph-name="X" unicode="X" horiz-adv-x="658" 
d="M13 0l169 353l-159 337h210l99 -237l100 237h202l-167 -335l178 -355h-214l-111 243l-103 -243h-204z" />
    <glyph glyph-name="Y" unicode="Y" horiz-adv-x="629" 
d="M220 0v203l-216 487h206l112 -302l119 302h185l-217 -487v-203h-189z" />
    <glyph glyph-name="Z" unicode="Z" horiz-adv-x="567" 
d="M27 0v117l279 421h-274v152h503v-117l-279 -420h284v-153h-513z" />
    <glyph glyph-name="bracketleft" unicode="[" horiz-adv-x="379" 
d="M64 -71v831h289v-140h-103v-551h103v-140h-289z" />
    <glyph glyph-name="backslash" unicode="\" horiz-adv-x="386" 
d="M153 761l249 -833h-168l-250 833h169z" />
    <glyph glyph-name="bracketright" unicode="]" horiz-adv-x="379" 
d="M316 760v-831h-290v140h103v551h-103v140h290z" />
    <glyph glyph-name="asciicircum" unicode="^" horiz-adv-x="482" 
d="M8 342l136 348h195l135 -348h-152l-81 249l-81 -249h-152z" />
    <glyph glyph-name="underscore" unicode="_" horiz-adv-x="522" 
d="M-7 -146v121h536v-121h-536z" />
    <glyph glyph-name="grave" unicode="`" horiz-adv-x="309" 
d="M144 548l-79 79v66h100l79 -79v-66h-100z" />
    <glyph glyph-name="a" unicode="a" horiz-adv-x="596" 
d="M118 0l-86 86v138l86 86h254v78l-17 17h-113l-9 -8v-35h-186v67l84 84h325l96 -96v-417h-138l-8 67l-68 -67h-220zM229 113h108l35 35v72h-143l-14 -14v-79z" />
    <glyph glyph-name="b" unicode="b" horiz-adv-x="613" 
d="M47 0v690h181v-234l58 57h192l97 -96v-320l-97 -97h-218l-67 67l-8 -67h-138zM270 114h98l25 25v232l-25 24h-88l-52 -52v-187z" />
    <glyph glyph-name="c" unicode="c" horiz-adv-x="578" 
d="M135 0l-96 97v320l96 96h328l89 -89v-101h-186v58l-20 20h-101l-25 -25v-239l25 -25h101l20 20v58h186v-101l-89 -89h-328z" />
    <glyph glyph-name="d" unicode="d" horiz-adv-x="613" 
d="M135 0l-96 97v320l96 96h193l57 -57v234h182v-690h-138l-9 67l-67 -67h-218zM245 114h98l42 42v187l-52 52h-88l-25 -24v-232z" />
    <glyph glyph-name="e" unicode="e" horiz-adv-x="590" 
d="M135 0l-96 97v320l96 96h320l96 -96v-200h-337v-86l21 -21h128l8 9v38h180v-75l-81 -82h-335zM214 312h163v74l-19 18h-125l-19 -18v-74z" />
    <glyph glyph-name="f" unicode="f" horiz-adv-x="406" 
d="M82 0v387h-64v126h64v93l84 84h232v-118h-123l-11 -12v-47h124v-126h-124v-387h-182z" />
    <glyph glyph-name="g" unicode="g" horiz-adv-x="610" 
d="M134 -176l-86 86v63h168v-26l12 -12h132l25 25v118l-57 -57h-193l-96 96v300l96 96h218l67 -67l9 67h138v-593l-97 -96h-336zM245 135h88l52 52v170l-42 42h-98l-25 -25v-215z" />
    <glyph glyph-name="h" unicode="h" horiz-adv-x="601" 
d="M47 0v690h181v-234l58 57h175l96 -96v-417h-181v353l-25 25h-79l-44 -44v-334h-181z" />
    <glyph glyph-name="i" unicode="i" horiz-adv-x="288" 
d="M235 0h-182v513h182v-513zM53 561v129h182v-129h-182z" />
    <glyph glyph-name="j" unicode="j" horiz-adv-x="286" 
d="M-56 -176v129h99l9 8v552h181v-598l-91 -91h-198zM52 561v129h181v-129h-181z" />
    <glyph glyph-name="k" unicode="k" horiz-adv-x="602" 
d="M395 0l-90 202l-77 -102v-100h-181v690h181v-403l151 226h199l-146 -193l160 -320h-197z" />
    <glyph glyph-name="l" unicode="l" horiz-adv-x="288" 
d="M235 0h-182v690h182v-690z" />
    <glyph glyph-name="m" unicode="m" horiz-adv-x="918" 
d="M47 0v513h138l9 -70l70 70h191l63 -63l63 63h197l96 -96v-417h-181v353l-25 25h-73l-44 -44v-334h-181v353l-25 25h-73l-44 -44v-334h-181z" />
    <glyph glyph-name="n" unicode="n" horiz-adv-x="601" 
d="M47 0v513h138l9 -70l70 70h197l96 -96v-417h-181v353l-25 25h-79l-44 -44v-334h-181z" />
    <glyph glyph-name="o" unicode="o" horiz-adv-x="603" 
d="M135 0l-96 97v320l96 96h333l97 -96v-320l-97 -97h-333zM245 111h113l25 25v242l-25 24h-113l-25 -24v-242z" />
    <glyph glyph-name="p" unicode="p" horiz-adv-x="613" 
d="M47 -176v689h138l8 -67l67 67h218l97 -96v-320l-97 -97h-205l-45 45v-221h-181zM267 118h101l25 25v231l-25 25h-98l-42 -42v-200z" />
    <glyph glyph-name="q" unicode="q" horiz-adv-x="613" 
d="M385 -176v228l-51 -52h-199l-96 97v320l96 96h218l67 -67l9 67h138v-689h-182zM245 118h94l46 46v193l-42 42h-98l-25 -25v-231z" />
    <glyph glyph-name="r" unicode="r" horiz-adv-x="414" 
d="M47 0v513h138l9 -70l70 70h128v-150h-123l-41 -41v-322h-181z" />
    <glyph glyph-name="s" unicode="s" horiz-adv-x="565" 
d="M114 0l-83 83v65h179v-30l8 -9h126l9 9v71l-9 9h-237l-72 72v154l89 89h322l83 -83v-64h-179v30l-9 8h-116l-8 -8v-71l8 -8h237l72 -72v-156l-89 -89h-331z" />
    <glyph glyph-name="t" unicode="t" horiz-adv-x="440" 
d="M181 0l-97 97v290h-71v126h71v126h182v-126h142v-126h-142v-232l20 -21h122v-134h-227z" />
    <glyph glyph-name="u" unicode="u" horiz-adv-x="601" 
d="M140 0l-96 97v416h181v-353l25 -25h79l44 44v334h181v-513h-138l-9 70l-70 -70h-197z" />
    <glyph glyph-name="v" unicode="v" horiz-adv-x="554" 
d="M155 0l-155 513h191l92 -400l93 400h178l-155 -513h-244z" />
    <glyph glyph-name="w" unicode="w" horiz-adv-x="851" 
d="M99 0l-92 513h176l57 -396l77 396h243l79 -396l57 396h148l-92 -513h-248l-75 397l-79 -397h-251z" />
    <glyph glyph-name="x" unicode="x" horiz-adv-x="576" 
d="M366 0l-82 176l-87 -176h-190l153 258l-145 255h207l73 -174l81 174h184l-143 -244l151 -269h-202z" />
    <glyph glyph-name="y" unicode="y" horiz-adv-x="555" 
d="M155 0l-155 513h191l95 -378l90 378h179l-185 -613l-76 -76h-251v128h192l13 48h-93z" />
    <glyph glyph-name="z" unicode="z" horiz-adv-x="497" 
d="M22 0v100l228 284h-221v129h440v-100l-227 -283h233v-130h-453z" />
    <glyph glyph-name="braceleft" unicode="{" horiz-adv-x="374" 
d="M167 -71l-107 107v219l-18 19h-56v154h56l18 19v206l107 107h182v-140h-68l-34 -34v-167l-67 -67l67 -67v-182l34 -34h68v-140h-182z" />
    <glyph glyph-name="bar" unicode="|" horiz-adv-x="329" 
d="M78 -72v833h173v-833h-173z" />
    <glyph glyph-name="braceright" unicode="}" horiz-adv-x="374" 
d="M314 36l-107 -107h-182v140h68l34 34v182l67 67l-67 67v167l-34 34h-68v140h182l107 -107v-206l18 -19h56v-154h-56l-18 -19v-219z" />
    <glyph glyph-name="asciitilde" unicode="~" horiz-adv-x="463" 
d="M13 497v125l69 68h135l83 -83h18l8 9v74h124v-125l-69 -68h-135l-83 82h-18l-8 -8v-74h-124z" />
    <glyph glyph-name="exclamdown" unicode="&#xa1;" horiz-adv-x="312" 
d="M251 491v-491h-190v491h190zM251 690v-142h-190v142h190z" />
    <glyph glyph-name="cent" unicode="&#xa2;" horiz-adv-x="660" 
d="M148 71l-106 106v336l106 107h100v89h175v-89h100l106 -107v-115h-190v55l-28 28h-151l-28 -28v-219l28 -28h151l28 28v59h190v-116l-106 -106h-100v-90h-175v90h-100z" />
    <glyph glyph-name="sterling" unicode="&#xa3;" horiz-adv-x="654" 
d="M30 0v136l49 49v80h-50v139h50v180l106 106h340l106 -106v-131h-190v71l-27 27h-115l-31 -30v-117h213v-139h-213v-75l-40 -41h403v-149h-601z" />
    <glyph glyph-name="yen" unicode="&#xa5;" horiz-adv-x="629" 
d="M47 228v88h124l-167 374h209l109 -297l116 297h188l-168 -374h124v-88h-163l-10 -22v-13h173v-88h-173v-105h-189v105h-173v88h173v13l-10 22h-163z" />
    <glyph glyph-name="section" unicode="&#xa7;" horiz-adv-x="659" 
d="M137 -124l-97 98v106h190v-45l22 -22h156l21 20v97h-323l-62 62v60h575v-275l-101 -101h-381zM43 314v276l101 100h378l95 -94v-107h-190v43l-22 22h-151l-21 -21v-97h324l62 -62v-60h-576z" />
    <glyph glyph-name="dieresis" unicode="&#xa8;" horiz-adv-x="452" 
d="M258 566v109h129v-109h-129zM65 566v109h130v-109h-130z" />
    <glyph glyph-name="copyright" unicode="&#xa9;" horiz-adv-x="859" 
d="M290 162l-58 58v251l58 58h278l58 -58v-82h-134v40l-11 11h-103l-13 -12v-164l13 -12h104l11 10v41h133v-83l-58 -58h-278zM172 0l-127 127v436l127 127h514l128 -127v-436l-128 -127h-514zM230 99h398l64 65v362l-64 65h-398l-64 -65v-362z" />
    <glyph glyph-name="ordfeminine" unicode="&#xaa;" horiz-adv-x="395" 
d="M86 343l-62 62v93l62 62h167v37l-11 11h-80l-7 -7v-7h-122v40l56 56h220l62 -62v-285h-92l-8 43l-43 -43h-142zM153 424h84l16 16v49h-100l-11 -11v-42z" />
    <glyph glyph-name="guillemotleft" unicode="&#xab;" horiz-adv-x="474" 
d="M112 133l-105 211l105 212h142l-105 -212l105 -211h-142zM313 133l-106 211l106 212h142l-106 -212l106 -211h-142z" />
    <glyph glyph-name="registered" unicode="&#xae;" horiz-adv-x="423" 
d="M127 375v219h137l35 -35v-68l-27 -27l33 -89h-55l-26 75h-44v-75h-53zM86 278l-66 66v280l66 66h251l66 -66v-280l-66 -66h-251zM107 327h210l34 34v246l-34 34h-210l-34 -34v-246zM180 492h56l9 9v40l-9 9h-56v-58z" />
    <glyph glyph-name="macron" unicode="&#xaf;" horiz-adv-x="390" 
d="M65 568v101h260v-101h-260z" />
    <glyph glyph-name="degree" unicode="&#xb0;" horiz-adv-x="335" 
d="M77 411l-54 54v171l54 54h182l53 -54v-171l-53 -54h-182zM128 488h79l12 12v101l-12 13h-79l-13 -13v-101z" />
    <glyph glyph-name="twosuperior" unicode="&#xb2;" horiz-adv-x="417" 
d="M30 311v166l55 56h168l6 7v53l-7 8h-83l-10 -9v-25h-128v63l60 60h236l60 -60v-128l-55 -55h-167l-7 -7v-36h229v-93h-357z" />
    <glyph glyph-name="threesuperior" unicode="&#xb3;" horiz-adv-x="414" 
d="M80 311l-60 60v58h128v-23l9 -8h94l9 8v46l-9 9h-149v83h148l9 9v43l-9 8h-93l-8 -8v-21h-129v55l60 60h247l60 -60v-81l-46 -46l47 -47v-85l-60 -60h-248z" />
    <glyph glyph-name="acute" unicode="&#xb4;" horiz-adv-x="309" 
d="M65 548v66l79 79h100v-66l-79 -79h-100z" />
    <glyph glyph-name="paragraph" unicode="&#xb6;" horiz-adv-x="907" 
d="M243 223h156v335h-156l-27 -28v-279zM663 558h-74v-682h-190v215h-267l-106 107v386l106 106h720v-814h-189v682z" />
    <glyph glyph-name="periodcentered" unicode="&#xb7;" horiz-adv-x="252" 
d="M42 278v173h169v-173h-169z" />
    <glyph glyph-name="cedilla" unicode="&#xb8;" horiz-adv-x="339" 
d="M65 -181v59h110l3 3v29l-3 3h-57l-21 21v66h82v-40h59l36 -36v-69l-36 -36h-173z" />
    <glyph glyph-name="onesuperior" unicode="&#xb9;" horiz-adv-x="343" 
d="M23 311v98h90v183h-88v98h216v-281h90v-98h-308z" />
    <glyph glyph-name="ordmasculine" unicode="&#xba;" horiz-adv-x="395" 
d="M86 343l-62 62v223l62 62h223l62 -62v-223l-62 -62h-223zM160 430h75l16 17v139l-16 16h-75l-17 -16v-139z" />
    <glyph glyph-name="guillemotright" unicode="&#xbb;" horiz-adv-x="474" 
d="M468 344l-106 -211h-142l105 211l-105 212h142zM267 344l-105 -211h-143l106 211l-106 212h143z" />
    <glyph glyph-name="onequarter" unicode="&#xbc;" horiz-adv-x="949" 
d="M23 311v98h90v183h-88v98h216v-281h90v-98h-308zM190 0l418 690h124l-418 -690h-124zM769 0v84h-234v70l75 225h119l-57 -202h97v202h126v-202h36v-93h-36v-84h-126z" />
    <glyph glyph-name="onehalf" unicode="&#xbd;" horiz-adv-x="945" 
d="M23 311v98h90v183h-88v98h216v-281h90v-98h-308zM190 0l418 690h124l-418 -690h-124zM558 0v166l55 56h168l6 7v53l-7 8h-83l-10 -9v-25h-128v63l60 60h236l60 -60v-128l-55 -55h-167l-7 -7v-36h229v-93h-357z" />
    <glyph glyph-name="threequarters" unicode="&#xbe;" horiz-adv-x="982" 
d="M80 311l-60 60v58h128v-23l9 -8h94l9 8v46l-9 9h-149v83h148l9 9v43l-9 8h-93l-8 -8v-21h-129v55l60 60h247l60 -60v-81l-46 -46l47 -47v-85l-60 -60h-248zM224 0l418 690h124l-418 -690h-124zM803 0v84h-234v70l75 225h119l-57 -202h97v202h126v-202h36v-93h-36v-84
h-126z" />
    <glyph glyph-name="questiondown" unicode="&#xbf;" horiz-adv-x="608" 
d="M439 492v-145l-78 -78h-132l-17 -16v-92l25 -25h147l22 22v60h190v-121l-97 -97h-376l-100 100v232l85 85h125l16 17v58h190zM439 690v-142h-190v142h190z" />
    <glyph glyph-name="Agrave" unicode="&#xc0;" horiz-adv-x="658" 
d="M4 0l181 690h283l182 -690h-197l-31 135h-207l-31 -135h-180zM320 581l-72 -306h142zM294 737l-79 79v66h100l79 -79v-66h-100z" />
    <glyph glyph-name="Aacute" unicode="&#xc1;" horiz-adv-x="658" 
d="M4 0l181 690h283l182 -690h-197l-31 135h-207l-31 -135h-180zM320 581l-72 -306h142zM262 737v66l79 79h100v-66l-79 -79h-100z" />
    <glyph glyph-name="Acircumflex" unicode="&#xc2;" horiz-adv-x="658" 
d="M4 0l181 690h283l182 -690h-197l-31 135h-207l-31 -135h-180zM320 581l-72 -306h142zM175 739v61l76 76h154l75 -76v-61h-86l-64 64h-4l-64 -64h-87z" />
    <glyph glyph-name="Atilde" unicode="&#xc3;" horiz-adv-x="658" 
d="M4 0l181 690h283l182 -690h-197l-31 135h-207l-31 -135h-180zM320 581l-72 -306h142zM172 742v85l46 46h105l52 -52h12l6 7v45h92v-85l-46 -46h-106l-52 52h-11l-7 -6v-46h-91z" />
    <glyph glyph-name="Adieresis" unicode="&#xc4;" horiz-adv-x="658" 
d="M4 0l181 690h283l182 -690h-197l-31 135h-207l-31 -135h-180zM320 581l-72 -306h142zM360 755v109h129v-109h-129zM167 755v109h130v-109h-130z" />
    <glyph glyph-name="Aring" unicode="&#xc5;" horiz-adv-x="658" 
d="M4 0l181 690h283l182 -690h-197l-31 135h-207l-31 -135h-180zM320 581l-72 -306h142zM257 730l-40 40v89l40 40h142l40 -40v-89l-40 -40h-142zM297 781h62l9 9v48l-9 10h-62l-10 -10v-48z" />
    <glyph glyph-name="AE" unicode="&#xc6;" horiz-adv-x="909" 
d="M4 0l181 690h682v-143h-364l32 -126h303v-139h-267l36 -139h262v-143h-416l-31 135h-207l-31 -135h-180zM320 581l-72 -306h142z" />
    <glyph glyph-name="Ccedilla" unicode="&#xc7;" horiz-adv-x="662" 
d="M151 0l-106 106v478l106 106h371l107 -106v-145h-190v81l-31 31h-139l-34 -34v-348l34 -33h139l31 30v87h190v-147l-107 -106h-144v-40h59l36 -36v-69l-36 -36h-173v59h110l3 3v29l-3 3h-57l-21 21v66h-145z" />
    <glyph glyph-name="Egrave" unicode="&#xc8;" horiz-adv-x="582" 
d="M55 0v690h485v-143h-296v-124h267v-143h-267v-137h298v-143h-487zM264 737l-79 79v66h100l79 -79v-66h-100z" />
    <glyph glyph-name="Eacute" unicode="&#xc9;" horiz-adv-x="582" 
d="M55 0v690h485v-143h-296v-124h267v-143h-267v-137h298v-143h-487zM232 737v66l79 79h100v-66l-79 -79h-100z" />
    <glyph glyph-name="Ecircumflex" unicode="&#xca;" horiz-adv-x="582" 
d="M145 739v61l76 76h154l75 -76v-61h-86l-64 64h-4l-64 -64h-87zM55 0v690h485v-143h-296v-124h267v-143h-267v-137h298v-143h-487z" />
    <glyph glyph-name="Edieresis" unicode="&#xcb;" horiz-adv-x="582" 
d="M330 755v109h129v-109h-129zM137 755v109h130v-109h-130zM55 0v690h485v-143h-296v-124h267v-143h-267v-137h298v-143h-487z" />
    <glyph glyph-name="Igrave" unicode="&#xcc;" horiz-adv-x="483" 
d="M32 0v131h114v429h-114v130h419v-130h-115v-429h115v-131h-419zM207 737l-79 79v66h100l79 -79v-66h-100z" />
    <glyph glyph-name="Iacute" unicode="&#xcd;" horiz-adv-x="483" 
d="M32 0v131h114v429h-114v130h419v-130h-115v-429h115v-131h-419zM175 737v66l79 79h100v-66l-79 -79h-100z" />
    <glyph glyph-name="Icircumflex" unicode="&#xce;" horiz-adv-x="483" 
d="M32 0v131h114v429h-114v130h419v-130h-115v-429h115v-131h-419zM88 739v61l76 76h154l75 -76v-61h-86l-64 64h-4l-64 -64h-87z" />
    <glyph glyph-name="Idieresis" unicode="&#xcf;" horiz-adv-x="483" 
d="M32 0v131h114v429h-114v130h419v-130h-115v-429h115v-131h-419zM273 755v109h129v-109h-129zM80 755v109h130v-109h-130z" />
    <glyph glyph-name="Eth" unicode="&#xd0;" horiz-adv-x="695" 
d="M19 270v147h48v273h477l106 -106v-478l-106 -106h-477v270h-48zM257 139h170l33 34v344l-33 34h-170v-134h88v-147h-88v-131z" />
    <glyph glyph-name="Ntilde" unicode="&#xd1;" horiz-adv-x="685" 
d="M55 0v690h192l220 -405v405h168v-690h-194l-218 411v-411h-168zM186 742v85l46 46h105l52 -52h12l6 7v45h92v-85l-46 -46h-106l-52 52h-11l-7 -6v-46h-91z" />
    <glyph glyph-name="Ograve" unicode="&#xd2;" horiz-adv-x="681" 
d="M151 0l-106 106v478l106 106h378l107 -106v-478l-107 -106h-378zM269 139h143l34 34v344l-34 34h-143l-34 -34v-344zM306 737l-79 79v66h100l79 -79v-66h-100z" />
    <glyph glyph-name="Oacute" unicode="&#xd3;" horiz-adv-x="681" 
d="M273 737v66l79 79h100v-66l-79 -79h-100zM151 0l-106 106v478l106 106h378l107 -106v-478l-107 -106h-378zM269 139h143l34 34v344l-34 34h-143l-34 -34v-344z" />
    <glyph glyph-name="Ocircumflex" unicode="&#xd4;" horiz-adv-x="681" 
d="M187 739v61l76 76h154l75 -76v-61h-86l-64 64h-4l-64 -64h-87zM151 0l-106 106v478l106 106h378l107 -106v-478l-107 -106h-378zM269 139h143l34 34v344l-34 34h-143l-34 -34v-344z" />
    <glyph glyph-name="Otilde" unicode="&#xd5;" horiz-adv-x="681" 
d="M151 0l-106 106v478l106 106h378l107 -106v-478l-107 -106h-378zM269 139h143l34 34v344l-34 34h-143l-34 -34v-344zM184 742v85l46 46h105l52 -52h12l6 7v45h92v-85l-46 -46h-106l-52 52h-11l-7 -6v-46h-91z" />
    <glyph glyph-name="Odieresis" unicode="&#xd6;" horiz-adv-x="681" 
d="M372 755v109h129v-109h-129zM179 755v109h130v-109h-130zM151 0l-106 106v478l106 106h378l107 -106v-478l-107 -106h-378zM269 139h143l34 34v344l-34 34h-143l-34 -34v-344z" />
    <glyph glyph-name="multiply" unicode="&#xd7;" horiz-adv-x="425" 
d="M111 145l-98 98l101 101l-101 102l98 98l101 -102l102 102l98 -98l-102 -102l102 -101l-98 -98l-102 101z" />
    <glyph glyph-name="Oslash" unicode="&#xd8;" horiz-adv-x="681" 
d="M151 0l-106 106v478l106 106h378l107 -106v-478l-107 -106h-378zM226 179l181 379h-147l-34 -34v-345zM420 132l34 34v345l-177 -379h143z" />
    <glyph glyph-name="Ugrave" unicode="&#xd9;" horiz-adv-x="675" 
d="M156 0l-107 106v584h190v-512l34 -34h129l34 34v512h190v-584l-106 -106h-364zM303 737l-79 79v66h100l79 -79v-66h-100z" />
    <glyph glyph-name="Uacute" unicode="&#xda;" horiz-adv-x="675" 
d="M271 737v66l79 79h100v-66l-79 -79h-100zM156 0l-107 106v584h190v-512l34 -34h129l34 34v512h190v-584l-106 -106h-364z" />
    <glyph glyph-name="Ucircumflex" unicode="&#xdb;" horiz-adv-x="675" 
d="M184 739v61l76 76h154l75 -76v-61h-86l-64 64h-4l-64 -64h-87zM156 0l-107 106v584h190v-512l34 -34h129l34 34v512h190v-584l-106 -106h-364z" />
    <glyph glyph-name="Udieresis" unicode="&#xdc;" horiz-adv-x="675" 
d="M369 755v109h129v-109h-129zM176 755v109h130v-109h-130zM156 0l-107 106v584h190v-512l34 -34h129l34 34v512h190v-584l-106 -106h-364z" />
    <glyph glyph-name="Yacute" unicode="&#xdd;" horiz-adv-x="629" 
d="M220 0v203l-216 487h206l112 -302l119 302h185l-217 -487v-203h-189zM248 737v66l79 79h100v-66l-79 -79h-100z" />
    <glyph glyph-name="Thorn" unicode="&#xde;" horiz-adv-x="666" 
d="M55 0v690h189v-107h292l107 -106v-246l-107 -107h-292v-124h-189zM244 256h187l21 22v151l-21 22h-187v-195z" />
    <glyph glyph-name="germandbls" unicode="&#xdf;" horiz-adv-x="647" 
d="M47 0v594l96 96h373l96 -96v-170l-67 -67l69 -69v-191l-97 -97h-244v113h137l22 22v149l-15 15h-144v113h143l15 15v128l-22 22h-159l-22 -22v-555h-181z" />
    <glyph glyph-name="agrave" unicode="&#xe0;" horiz-adv-x="596" 
d="M118 0l-86 86v138l86 86h254v78l-17 17h-113l-9 -8v-35h-186v67l84 84h325l96 -96v-417h-138l-8 67l-68 -67h-220zM229 113h108l35 35v72h-143l-14 -14v-79zM258 548l-79 79v66h100l79 -79v-66h-100z" />
    <glyph glyph-name="aacute" unicode="&#xe1;" horiz-adv-x="596" 
d="M118 0l-86 86v138l86 86h254v78l-17 17h-113l-9 -8v-35h-186v67l84 84h325l96 -96v-417h-138l-8 67l-68 -67h-220zM225 548v66l79 79h100v-66l-79 -79h-100zM229 113h108l35 35v72h-143l-14 -14v-79z" />
    <glyph glyph-name="acircumflex" unicode="&#xe2;" horiz-adv-x="596" 
d="M118 0l-86 86v138l86 86h254v78l-17 17h-113l-9 -8v-35h-186v67l84 84h325l96 -96v-417h-138l-8 67l-68 -67h-220zM229 113h108l35 35v72h-143l-14 -14v-79zM139 550v61l76 76h154l75 -76v-61h-86l-64 64h-4l-64 -64h-87z" />
    <glyph glyph-name="atilde" unicode="&#xe3;" horiz-adv-x="596" 
d="M118 0l-86 86v138l86 86h254v78l-17 17h-113l-9 -8v-35h-186v67l84 84h325l96 -96v-417h-138l-8 67l-68 -67h-220zM229 113h108l35 35v72h-143l-14 -14v-79zM135 553v85l46 46h105l52 -52h12l6 7v45h92v-85l-46 -46h-106l-52 52h-11l-7 -6v-46h-91z" />
    <glyph glyph-name="adieresis" unicode="&#xe4;" horiz-adv-x="596" 
d="M118 0l-86 86v138l86 86h254v78l-17 17h-113l-9 -8v-35h-186v67l84 84h325l96 -96v-417h-138l-8 67l-68 -67h-220zM229 113h108l35 35v72h-143l-14 -14v-79zM324 566v109h129v-109h-129zM131 566v109h130v-109h-130z" />
    <glyph glyph-name="aring" unicode="&#xe5;" horiz-adv-x="596" 
d="M118 0l-86 86v138l86 86h254v78l-17 17h-113l-9 -8v-35h-186v67l84 84h325l96 -96v-417h-138l-8 67l-68 -67h-220zM229 113h108l35 35v72h-143l-14 -14v-79zM221 541l-40 40v89l40 40h142l40 -40v-89l-40 -40h-142zM261 592h62l9 9v48l-9 10h-62l-10 -10v-48z" />
    <glyph glyph-name="ae" unicode="&#xe6;" horiz-adv-x="921" 
d="M118 0l-86 86v137l87 87h250v78l-17 17h-110l-9 -8v-35h-186v67l84 84h282l45 -44l44 44h283l97 -96v-198h-337v-91l18 -18h130l9 9v38h180v-75l-82 -82h-298l-44 45l-45 -45h-295zM226 113h108l35 35v71h-144l-13 -13v-79zM545 310h163v76l-19 18h-125l-19 -18v-76z" />
    <glyph glyph-name="ccedilla" unicode="&#xe7;" horiz-adv-x="578" 
d="M135 0l-96 97v320l96 96h328l89 -89v-101h-186v58l-20 20h-101l-25 -25v-239l25 -25h101l20 20v58h186v-101l-89 -89h-127v-40h59l36 -36v-69l-36 -36h-173v59h110l3 3v29l-3 3h-57l-21 21v66h-119z" />
    <glyph glyph-name="egrave" unicode="&#xe8;" horiz-adv-x="590" 
d="M135 0l-96 97v320l96 96h320l96 -96v-200h-337v-86l21 -21h128l8 9v38h180v-75l-81 -82h-335zM214 312h163v74l-19 18h-125l-19 -18v-74zM261 548l-79 79v66h100l79 -79v-66h-100z" />
    <glyph glyph-name="eacute" unicode="&#xe9;" horiz-adv-x="590" 
d="M135 0l-96 97v320l96 96h320l96 -96v-200h-337v-86l21 -21h128l8 9v38h180v-75l-81 -82h-335zM229 548v66l79 79h100v-66l-79 -79h-100zM214 312h163v74l-19 18h-125l-19 -18v-74z" />
    <glyph glyph-name="ecircumflex" unicode="&#xea;" horiz-adv-x="590" 
d="M142 550v61l76 76h154l75 -76v-61h-86l-64 64h-4l-64 -64h-87zM135 0l-96 97v320l96 96h320l96 -96v-200h-337v-86l21 -21h128l8 9v38h180v-75l-81 -82h-335zM214 312h163v74l-19 18h-125l-19 -18v-74z" />
    <glyph glyph-name="edieresis" unicode="&#xeb;" horiz-adv-x="590" 
d="M327 566v109h129v-109h-129zM134 566v109h130v-109h-130zM135 0l-96 97v320l96 96h320l96 -96v-200h-337v-86l21 -21h128l8 9v38h180v-75l-81 -82h-335zM214 312h163v74l-19 18h-125l-19 -18v-74z" />
    <glyph glyph-name="igrave" unicode="&#xec;" horiz-adv-x="288" 
d="M235 0h-182v513h182v-513zM110 548l-79 79v66h100l79 -79v-66h-100z" />
    <glyph glyph-name="iacute" unicode="&#xed;" horiz-adv-x="288" 
d="M235 0h-182v513h182v-513zM77 548v66l79 79h100v-66l-79 -79h-100z" />
    <glyph glyph-name="icircumflex" unicode="&#xee;" horiz-adv-x="288" 
d="M-9 550v61l76 76h154l75 -76v-61h-86l-64 64h-4l-64 -64h-87zM235 0h-182v513h182v-513z" />
    <glyph glyph-name="idieresis" unicode="&#xef;" horiz-adv-x="288" 
d="M176 566v109h129v-109h-129zM-17 566v109h130v-109h-130zM235 0h-182v513h182v-513z" />
    <glyph glyph-name="eth" unicode="&#xf0;" horiz-adv-x="607" 
d="M135 0l-96 97v320l96 96h193l57 -57v77l-121 121v36h170l105 -105l59 58h29v-120l-60 -61v-365l-97 -97h-335zM245 111h115l25 25v211l-49 48h-91l-25 -24v-235z" />
    <glyph glyph-name="ntilde" unicode="&#xf1;" horiz-adv-x="601" 
d="M47 0v513h138l9 -70l70 70h197l96 -96v-417h-181v353l-25 25h-79l-44 -44v-334h-181zM154 553v85l46 46h105l52 -52h12l6 7v45h92v-85l-46 -46h-106l-52 52h-11l-7 -6v-46h-91z" />
    <glyph glyph-name="ograve" unicode="&#xf2;" horiz-adv-x="603" 
d="M135 0l-96 97v320l96 96h333l97 -96v-320l-97 -97h-333zM245 111h113l25 25v242l-25 24h-113l-25 -24v-242zM267 548l-79 79v66h100l79 -79v-66h-100z" />
    <glyph glyph-name="oacute" unicode="&#xf3;" horiz-adv-x="603" 
d="M135 0l-96 97v320l96 96h333l97 -96v-320l-97 -97h-333zM245 111h113l25 25v242l-25 24h-113l-25 -24v-242zM235 548v66l79 79h100v-66l-79 -79h-100z" />
    <glyph glyph-name="ocircumflex" unicode="&#xf4;" horiz-adv-x="603" 
d="M148 550v61l76 76h154l75 -76v-61h-86l-64 64h-4l-64 -64h-87zM135 0l-96 97v320l96 96h333l97 -96v-320l-97 -97h-333zM245 111h113l25 25v242l-25 24h-113l-25 -24v-242z" />
    <glyph glyph-name="otilde" unicode="&#xf5;" horiz-adv-x="603" 
d="M135 0l-96 97v320l96 96h333l97 -96v-320l-97 -97h-333zM245 111h113l25 25v242l-25 24h-113l-25 -24v-242zM145 553v85l46 46h105l52 -52h12l6 7v45h92v-85l-46 -46h-106l-52 52h-11l-7 -6v-46h-91z" />
    <glyph glyph-name="odieresis" unicode="&#xf6;" horiz-adv-x="603" 
d="M333 566v109h129v-109h-129zM140 566v109h130v-109h-130zM135 0l-96 97v320l96 96h333l97 -96v-320l-97 -97h-333zM245 111h113l25 25v242l-25 24h-113l-25 -24v-242z" />
    <glyph glyph-name="divide" unicode="&#xf7;" horiz-adv-x="396" 
d="M132 122v115h132v-115h-132zM13 274v140h370v-140h-370zM132 451v114h132v-114h-132z" />
    <glyph glyph-name="oslash" unicode="&#xf8;" horiz-adv-x="603" 
d="M135 0l-96 97v320l96 96h333l97 -96v-320l-97 -97h-333zM213 178l141 229h-113l-28 -28v-201zM362 106l28 28v197l-140 -225h112z" />
    <glyph glyph-name="ugrave" unicode="&#xf9;" horiz-adv-x="601" 
d="M140 0l-96 97v416h181v-353l25 -25h79l44 44v334h181v-513h-138l-9 70l-70 -70h-197zM265 548l-79 79v66h100l79 -79v-66h-100z" />
    <glyph glyph-name="uacute" unicode="&#xfa;" horiz-adv-x="601" 
d="M140 0l-96 97v416h181v-353l25 -25h79l44 44v334h181v-513h-138l-9 70l-70 -70h-197zM232 548v66l79 79h100v-66l-79 -79h-100z" />
    <glyph glyph-name="ucircumflex" unicode="&#xfb;" horiz-adv-x="601" 
d="M146 550v61l76 76h154l75 -76v-61h-86l-64 64h-4l-64 -64h-87zM140 0l-96 97v416h181v-353l25 -25h79l44 44v334h181v-513h-138l-9 70l-70 -70h-197z" />
    <glyph glyph-name="udieresis" unicode="&#xfc;" horiz-adv-x="601" 
d="M331 566v109h129v-109h-129zM138 566v109h130v-109h-130zM140 0l-96 97v416h181v-353l25 -25h79l44 44v334h181v-513h-138l-9 70l-70 -70h-197z" />
    <glyph glyph-name="yacute" unicode="&#xfd;" horiz-adv-x="555" 
d="M155 0l-155 513h191l95 -378l90 378h179l-185 -613l-76 -76h-251v128h192l13 48h-93zM210 548v66l79 79h100v-66l-79 -79h-100z" />
    <glyph glyph-name="thorn" unicode="&#xfe;" horiz-adv-x="613" 
d="M47 -176v866h181v-234l58 57h192l97 -96v-320l-97 -97h-205l-45 45v-221h-181zM267 118h101l25 25v231l-25 25h-95l-45 -45v-197z" />
    <glyph glyph-name="ydieresis" unicode="&#xff;" horiz-adv-x="555" 
d="M155 0l-155 513h191l95 -378l90 378h179l-185 -613l-76 -76h-251v128h192l13 48h-93zM309 566v109h129v-109h-129zM116 566v109h130v-109h-130z" />
    <glyph glyph-name="Amacron" unicode="&#x100;" horiz-adv-x="658" 
d="M4 0l181 690h283l182 -690h-197l-31 135h-207l-31 -135h-180zM320 581l-72 -306h142zM199 757v101h260v-101h-260z" />
    <glyph glyph-name="amacron" unicode="&#x101;" horiz-adv-x="596" 
d="M118 0l-86 86v138l86 86h254v78l-17 17h-113l-9 -8v-35h-186v67l84 84h325l96 -96v-417h-138l-8 67l-68 -67h-220zM229 113h108l35 35v72h-143l-14 -14v-79zM162 568v101h260v-101h-260z" />
    <glyph glyph-name="Abreve" unicode="&#x102;" horiz-adv-x="658" 
d="M4 0l181 690h283l182 -690h-197l-31 135h-207l-31 -135h-180zM320 581l-72 -306h142zM222 742l-47 47v80h109v-43l9 -9h70l9 9v43h109v-80l-48 -47h-211z" />
    <glyph glyph-name="abreve" unicode="&#x103;" horiz-adv-x="596" 
d="M118 0l-86 86v138l86 86h254v78l-17 17h-113l-9 -8v-35h-186v67l84 84h325l96 -96v-417h-138l-8 67l-68 -67h-220zM229 113h108l35 35v72h-143l-14 -14v-79zM186 553l-47 47v80h109v-43l9 -9h70l9 9v43h109v-80l-48 -47h-211z" />
    <glyph glyph-name="Aogonek" unicode="&#x104;" horiz-adv-x="653" 
d="M4 0l181 690h283l182 -690h-90l-77 -78v-36l3 -3h74v-64h-140l-36 36v78l68 69l-30 133h-207l-31 -135h-180zM320 581l-72 -306h142z" />
    <glyph glyph-name="aogonek" unicode="&#x105;" horiz-adv-x="596" 
d="M118 0l-86 86v138l86 86h254v78l-17 17h-113l-9 -8v-35h-186v67l84 84h325l96 -96v-417h-28l-77 -78v-36l2 -3h75v-64h-140l-36 36v78l66 67l-8 67l-68 -67h-220zM229 113h108l35 35v72h-143l-14 -14v-79z" />
    <glyph glyph-name="Cacute" unicode="&#x106;" horiz-adv-x="662" 
d="M270 737v66l79 79h100v-66l-79 -79h-100zM151 0l-106 106v478l106 106h371l107 -106v-145h-190v81l-31 31h-139l-34 -34v-348l34 -33h139l31 30v87h190v-147l-107 -106h-371z" />
    <glyph glyph-name="cacute" unicode="&#x107;" horiz-adv-x="578" 
d="M228 548v66l79 79h100v-66l-79 -79h-100zM135 0l-96 97v320l96 96h328l89 -89v-101h-186v58l-20 20h-101l-25 -25v-239l25 -25h101l20 20v58h186v-101l-89 -89h-328z" />
    <glyph glyph-name="Ccircumflex" unicode="&#x108;" horiz-adv-x="662" 
d="M183 739v61l76 76h154l75 -76v-61h-86l-64 64h-4l-64 -64h-87zM151 0l-106 106v478l106 106h371l107 -106v-145h-190v81l-31 31h-139l-34 -34v-348l34 -33h139l31 30v87h190v-147l-107 -106h-371z" />
    <glyph glyph-name="ccircumflex" unicode="&#x109;" horiz-adv-x="578" 
d="M142 550v61l76 76h154l75 -76v-61h-86l-64 64h-4l-64 -64h-87zM135 0l-96 97v320l96 96h328l89 -89v-101h-186v58l-20 20h-101l-25 -25v-239l25 -25h101l20 20v58h186v-101l-89 -89h-328z" />
    <glyph glyph-name="Ccaron" unicode="&#x10c;" horiz-adv-x="662" 
d="M259 739l-76 76v61h87l64 -64h4l64 64h86v-61l-75 -76h-154zM151 0l-106 106v478l106 106h371l107 -106v-145h-190v81l-31 31h-139l-34 -34v-348l34 -33h139l31 30v87h190v-147l-107 -106h-371z" />
    <glyph glyph-name="ccaron" unicode="&#x10d;" horiz-adv-x="578" 
d="M218 550l-76 76v61h87l64 -64h4l64 64h86v-61l-75 -76h-154zM135 0l-96 97v320l96 96h328l89 -89v-101h-186v58l-20 20h-101l-25 -25v-239l25 -25h101l20 20v58h186v-101l-89 -89h-328z" />
    <glyph glyph-name="Dcaron" unicode="&#x10e;" horiz-adv-x="683" 
d="M246 739l-76 76v61h87l64 -64h4l64 64h86v-61l-75 -76h-154zM55 0v690h476l107 -106v-478l-107 -106h-476zM244 139h170l34 34v344l-34 34h-170v-412z" />
    <glyph glyph-name="dcaron" unicode="&#x10f;" horiz-adv-x="613" 
d="M605 539v151h114v-103l-48 -48h-66zM135 0l-96 97v320l96 96h193l57 -57v234h182v-690h-138l-9 67l-67 -67h-218zM245 114h98l42 42v187l-52 52h-88l-25 -24v-232z" />
    <glyph glyph-name="Dcroat" unicode="&#x110;" horiz-adv-x="695" 
d="M19 270v147h48v273h477l106 -106v-478l-106 -106h-477v270h-48zM257 139h170l33 34v344l-33 34h-170v-134h88v-147h-88v-131z" />
    <glyph glyph-name="dcroat" unicode="&#x111;" horiz-adv-x="613" 
d="M253 552v93h132v45h182v-45h52v-93h-52v-552h-138l-9 67l-67 -67h-218l-96 97v320l96 96h193l57 -57v96h-132zM245 114h98l42 42v187l-52 52h-88l-25 -24v-232z" />
    <glyph glyph-name="Emacron" unicode="&#x112;" horiz-adv-x="582" 
d="M55 0v690h485v-143h-296v-124h267v-143h-267v-137h298v-143h-487zM168 757v101h260v-101h-260z" />
    <glyph glyph-name="emacron" unicode="&#x113;" horiz-adv-x="590" 
d="M135 0l-96 97v320l96 96h320l96 -96v-200h-337v-86l21 -21h128l8 9v38h180v-75l-81 -82h-335zM214 312h163v74l-19 18h-125l-19 -18v-74zM166 568v101h260v-101h-260z" />
    <glyph glyph-name="Edotaccent" unicode="&#x116;" horiz-adv-x="582" 
d="M55 0v690h485v-143h-296v-124h267v-143h-267v-137h298v-143h-487zM256 740l-35 34v73l35 34h84l35 -34v-73l-35 -34h-84z" />
    <glyph glyph-name="edotaccent" unicode="&#x117;" horiz-adv-x="590" 
d="M135 0l-96 97v320l96 96h320l96 -96v-200h-337v-86l21 -21h128l8 9v38h180v-75l-81 -82h-335zM214 312h163v74l-19 18h-125l-19 -18v-74zM253 551l-35 34v73l35 34h84l35 -34v-73l-35 -34h-84z" />
    <glyph glyph-name="Eogonek" unicode="&#x118;" horiz-adv-x="582" 
d="M55 0v690h485v-143h-296v-124h267v-143h-267v-137h298v-143l-77 -78v-36l3 -3h74v-64h-140l-36 36v78l66 67h-377z" />
    <glyph glyph-name="eogonek" unicode="&#x119;" horiz-adv-x="590" 
d="M135 0l-96 97v320l96 96h320l96 -96v-200h-337v-86l21 -21h128l8 9v38h180v-75l-81 -82l-78 -78v-36l3 -3h75v-64h-141l-36 36v78l67 67h-225zM214 312h163v74l-19 18h-125l-19 -18v-74z" />
    <glyph glyph-name="Ecaron" unicode="&#x11a;" horiz-adv-x="582" 
d="M221 739l-76 76v61h87l64 -64h4l64 64h86v-61l-75 -76h-154zM55 0v690h485v-143h-296v-124h267v-143h-267v-137h298v-143h-487z" />
    <glyph glyph-name="ecaron" unicode="&#x11b;" horiz-adv-x="590" 
d="M218 550l-76 76v61h87l64 -64h4l64 64h86v-61l-75 -76h-154zM135 0l-96 97v320l96 96h320l96 -96v-200h-337v-86l21 -21h128l8 9v38h180v-75l-81 -82h-335zM214 312h163v74l-19 18h-125l-19 -18v-74z" />
    <glyph glyph-name="Gcircumflex" unicode="&#x11c;" horiz-adv-x="678" 
d="M188 739v61l76 76h154l75 -76v-61h-86l-64 64h-4l-64 -64h-87zM151 0l-106 106v478l106 106h387l100 -100v-120h-190v59l-21 22h-158l-34 -34v-351l34 -33h158l21 21v97h-140v138h330v-289l-100 -100h-387z" />
    <glyph glyph-name="gcircumflex" unicode="&#x11d;" horiz-adv-x="610" 
d="M148 550v61l76 76h154l75 -76v-61h-86l-64 64h-4l-64 -64h-87zM134 -176l-86 86v63h168v-26l12 -12h132l25 25v118l-57 -57h-193l-96 96v300l96 96h218l67 -67l9 67h138v-593l-97 -96h-336zM245 135h88l52 52v170l-42 42h-98l-25 -25v-215z" />
    <glyph glyph-name="Gbreve" unicode="&#x11e;" horiz-adv-x="678" 
d="M151 0l-106 106v478l106 106h387l100 -100v-120h-190v59l-21 22h-158l-34 -34v-351l34 -33h158l21 21v97h-140v138h330v-289l-100 -100h-387zM235 742l-47 47v80h109v-43l9 -9h70l9 9v43h109v-80l-48 -47h-211z" />
    <glyph glyph-name="gbreve" unicode="&#x11f;" horiz-adv-x="610" 
d="M134 -176l-86 86v63h168v-26l12 -12h132l25 25v118l-57 -57h-193l-96 96v300l96 96h218l67 -67l9 67h138v-593l-97 -96h-336zM245 135h88l52 52v170l-42 42h-98l-25 -25v-215zM195 553l-47 47v80h109v-43l9 -9h70l9 9v43h109v-80l-48 -47h-211z" />
    <glyph glyph-name="Gcommaaccent" unicode="&#x122;" horiz-adv-x="678" 
d="M284 -181v151h114v-103l-48 -48h-66zM151 0l-106 106v478l106 106h387l100 -100v-120h-190v59l-21 22h-158l-34 -34v-351l34 -33h158l21 21v97h-140v138h330v-289l-100 -100h-387z" />
    <glyph glyph-name="gcommaaccent" unicode="&#x123;" horiz-adv-x="610" 
d="M351 699v-151h-114v103l48 48h66zM134 -176l-86 86v63h168v-26l12 -12h132l25 25v118l-57 -57h-193l-96 96v300l96 96h218l67 -67l9 67h138v-593l-97 -96h-336zM245 135h88l52 52v170l-42 42h-98l-25 -25v-215z" />
    <glyph glyph-name="Hcircumflex" unicode="&#x124;" horiz-adv-x="689" 
d="M192 739v61l76 76h154l75 -76v-61h-86l-64 64h-4l-64 -64h-87zM55 0v690h189v-272h201v272h190v-690h-190v253h-201v-253h-189z" />
    <glyph glyph-name="hcircumflex" unicode="&#x125;" horiz-adv-x="601" 
d="M-15 715v61l76 76h154l75 -76v-61h-86l-64 64h-4l-64 -64h-87zM47 0v690h181v-234l58 57h175l96 -96v-417h-181v353l-25 25h-79l-44 -44v-334h-181z" />
    <glyph glyph-name="Imacron" unicode="&#x12a;" horiz-adv-x="483" 
d="M32 0v131h114v429h-114v130h419v-130h-115v-429h115v-131h-419zM112 757v101h260v-101h-260z" />
    <glyph glyph-name="imacron" unicode="&#x12b;" horiz-adv-x="288" 
d="M235 0h-182v513h182v-513zM15 568v101h260v-101h-260z" />
    <glyph glyph-name="Iogonek" unicode="&#x12e;" horiz-adv-x="483" 
d="M32 0v131h114v429h-114v130h419v-130h-115v-429h115v-131h-152l-78 -78v-36l3 -3h75v-64h-141l-36 36v78l67 67h-157z" />
    <glyph glyph-name="iogonek" unicode="&#x12f;" horiz-adv-x="288" 
d="M235 0h-72l-77 -78v-36l2 -3h75v-64h-140l-37 36v78l67 67v513h182v-513zM53 561v129h182v-129h-182z" />
    <glyph glyph-name="Idotaccent" unicode="&#x130;" horiz-adv-x="483" 
d="M32 0v131h114v429h-114v130h419v-130h-115v-429h115v-131h-419zM199 740l-35 34v73l35 34h84l35 -34v-73l-35 -34h-84z" />
    <glyph glyph-name="dotlessi" unicode="&#x131;" horiz-adv-x="288" 
d="M235 0h-182v513h182v-513z" />
    <glyph glyph-name="Jcircumflex" unicode="&#x134;" horiz-adv-x="437" 
d="M137 739v61l76 76h154l75 -76v-61h-86l-64 64h-4l-64 -64h-87zM22 0v146h142l34 33v511h190v-584l-107 -106h-259z" />
    <glyph glyph-name="jcircumflex" unicode="&#x135;" horiz-adv-x="286" 
d="M-11 550v61l76 76h154l75 -76v-61h-86l-64 64h-4l-64 -64h-87zM-56 -176v129h99l9 8v552h181v-598l-91 -91h-198z" />
    <glyph glyph-name="Kcommaaccent" unicode="&#x136;" horiz-adv-x="680" 
d="M303 -181v151h114v-103l-48 -48h-66zM455 0l-119 265l-92 -143v-122h-189v690h189v-335l202 335h211l-185 -281l193 -409h-210z" />
    <glyph glyph-name="kcommaaccent" unicode="&#x137;" horiz-adv-x="602" 
d="M262 -181v151h114v-103l-48 -48h-66zM395 0l-90 202l-77 -102v-100h-181v690h181v-403l151 226h199l-146 -193l160 -320h-197z" />
    <glyph glyph-name="Lacute" unicode="&#x139;" horiz-adv-x="515" 
d="M94 737v66l79 79h100v-66l-79 -79h-100zM55 0v690h189v-539h252v-151h-441z" />
    <glyph glyph-name="lacute" unicode="&#x13a;" horiz-adv-x="288" 
d="M84 720v66l79 79h100v-66l-79 -79h-100zM235 0h-182v690h182v-690z" />
    <glyph glyph-name="Lcommaaccent" unicode="&#x13b;" horiz-adv-x="515" 
d="M218 -181v151h114v-103l-48 -48h-66zM55 0v690h189v-539h252v-151h-441z" />
    <glyph glyph-name="lcommaaccent" unicode="&#x13c;" horiz-adv-x="288" 
d="M87 -181v151h114v-103l-48 -48h-66zM235 0h-182v690h182v-690z" />
    <glyph glyph-name="Lcaron" unicode="&#x13d;" horiz-adv-x="515" 
d="M314 574v151h114v-103l-48 -48h-66zM55 0v690h189v-539h252v-151h-441z" />
    <glyph glyph-name="lcaron" unicode="&#x13e;" horiz-adv-x="288" 
d="M273 539v151h114v-103l-48 -48h-66zM235 0h-182v690h182v-690z" />
    <glyph glyph-name="Lslash" unicode="&#x141;" horiz-adv-x="525" 
d="M16 233v150l48 17v290h190v-220l103 38v-150l-103 -38v-169h251v-151h-441v250z" />
    <glyph glyph-name="lslash" unicode="&#x142;" horiz-adv-x="308" 
d="M3 249v150l60 22v269h182v-203l60 22v-150l-60 -22v-337h-182v271z" />
    <glyph glyph-name="Nacute" unicode="&#x143;" horiz-adv-x="685" 
d="M275 737v66l79 79h100v-66l-79 -79h-100zM55 0v690h192l220 -405v405h168v-690h-194l-218 411v-411h-168z" />
    <glyph glyph-name="nacute" unicode="&#x144;" horiz-adv-x="601" 
d="M243 548v66l79 79h100v-66l-79 -79h-100zM47 0v513h138l9 -70l70 70h197l96 -96v-417h-181v353l-25 25h-79l-44 -44v-334h-181z" />
    <glyph glyph-name="Ncommaaccent" unicode="&#x145;" horiz-adv-x="685" 
d="M285 -181v151h114v-103l-48 -48h-66zM55 0v690h192l220 -405v405h168v-690h-194l-218 411v-411h-168z" />
    <glyph glyph-name="ncommaaccent" unicode="&#x146;" horiz-adv-x="601" 
d="M248 -181v151h114v-103l-48 -48h-66zM47 0v513h138l9 -70l70 70h197l96 -96v-417h-181v353l-25 25h-79l-44 -44v-334h-181z" />
    <glyph glyph-name="Ncaron" unicode="&#x147;" horiz-adv-x="685" 
d="M265 739l-76 76v61h87l64 -64h4l64 64h86v-61l-75 -76h-154zM55 0v690h192l220 -405v405h168v-690h-194l-218 411v-411h-168z" />
    <glyph glyph-name="ncaron" unicode="&#x148;" horiz-adv-x="601" 
d="M233 550l-76 76v61h87l64 -64h4l64 64h86v-61l-75 -76h-154zM47 0v513h138l9 -70l70 70h197l96 -96v-417h-181v353l-25 25h-79l-44 -44v-334h-181z" />
    <glyph glyph-name="Omacron" unicode="&#x14c;" horiz-adv-x="681" 
d="M210 757v101h260v-101h-260zM151 0l-106 106v478l106 106h378l107 -106v-478l-107 -106h-378zM269 139h143l34 34v344l-34 34h-143l-34 -34v-344z" />
    <glyph glyph-name="omacron" unicode="&#x14d;" horiz-adv-x="603" 
d="M171 568v101h260v-101h-260zM135 0l-96 97v320l96 96h333l97 -96v-320l-97 -97h-333zM245 111h113l25 25v242l-25 24h-113l-25 -24v-242z" />
    <glyph glyph-name="Ohungarumlaut" unicode="&#x150;" horiz-adv-x="681" 
d="M217 737v66l79 79h67v-66l-79 -79h-67zM373 737v66l79 79h67v-66l-79 -79h-67zM151 0l-106 106v478l106 106h378l107 -106v-478l-107 -106h-378zM269 139h143l34 34v344l-34 34h-143l-34 -34v-344z" />
    <glyph glyph-name="ohungarumlaut" unicode="&#x151;" horiz-adv-x="603" 
d="M178 548v66l79 79h67v-66l-79 -79h-67zM334 548v66l79 79h67v-66l-79 -79h-67zM135 0l-96 97v320l96 96h333l97 -96v-320l-97 -97h-333zM245 111h113l25 25v242l-25 24h-113l-25 -24v-242z" />
    <glyph glyph-name="OE" unicode="&#x152;" horiz-adv-x="966" 
d="M151 0l-106 106v478l106 106h773v-143h-296v-126h267v-139h-267v-139h298v-143h-775zM269 139h169v412h-169l-34 -34v-344z" />
    <glyph glyph-name="oe" unicode="&#x153;" horiz-adv-x="935" 
d="M135 0l-96 97v320l96 96h293l44 -44l45 44h282l97 -96v-200h-337v-89l18 -18h130l9 9v38h180v-75l-82 -82h-297l-45 45l-44 -45h-293zM245 111h113l25 25v242l-25 24h-113l-25 -24v-242zM559 312h163v74l-19 18h-125l-19 -18v-74z" />
    <glyph glyph-name="Racute" unicode="&#x154;" horiz-adv-x="672" 
d="M265 737v66l79 79h100v-66l-79 -79h-100zM55 0v690h486l101 -100v-219l-88 -87l103 -284h-197l-87 256h-129v-256h-189zM244 386h181l27 28v120l-27 27h-181v-175z" />
    <glyph glyph-name="racute" unicode="&#x155;" horiz-adv-x="414" 
d="M153 548v66l79 79h100v-66l-79 -79h-100zM47 0v513h138l9 -70l70 70h128v-150h-123l-41 -41v-322h-181z" />
    <glyph glyph-name="Rcommaaccent" unicode="&#x156;" horiz-adv-x="672" 
d="M294 -181v151h114v-103l-48 -48h-66zM55 0v690h486l101 -100v-219l-88 -87l103 -284h-197l-87 256h-129v-256h-189zM244 386h181l27 28v120l-27 27h-181v-175z" />
    <glyph glyph-name="rcommaaccent" unicode="&#x157;" horiz-adv-x="414" 
d="M80 -181v151h114v-103l-48 -48h-66zM47 0v513h138l9 -70l70 70h128v-150h-123l-41 -41v-322h-181z" />
    <glyph glyph-name="Rcaron" unicode="&#x158;" horiz-adv-x="672" 
d="M254 739l-76 76v61h87l64 -64h4l64 64h86v-61l-75 -76h-154zM55 0v690h486l101 -100v-219l-88 -87l103 -284h-197l-87 256h-129v-256h-189zM244 386h181l27 28v120l-27 27h-181v-175z" />
    <glyph glyph-name="rcaron" unicode="&#x159;" horiz-adv-x="414" 
d="M142 550l-76 76v61h87l64 -64h4l64 64h86v-61l-75 -76h-154zM47 0v513h138l9 -70l70 70h128v-150h-123l-41 -41v-322h-181z" />
    <glyph glyph-name="Sacute" unicode="&#x15a;" horiz-adv-x="656" 
d="M261 737v66l79 79h100v-66l-79 -79h-100zM136 0l-97 97v118h189v-57l22 -21h157l20 20v100l-15 15h-285l-85 86v232l100 100h376l97 -97v-118h-189v57l-22 22h-152l-20 -21v-96l15 -16h285l85 -85v-236l-100 -100h-381z" />
    <glyph glyph-name="sacute" unicode="&#x15b;" horiz-adv-x="565" 
d="M221 548v66l79 79h100v-66l-79 -79h-100zM114 0l-83 83v65h179v-30l8 -9h126l9 9v71l-9 9h-237l-72 72v154l89 89h322l83 -83v-64h-179v30l-9 8h-116l-8 -8v-71l8 -8h237l72 -72v-156l-89 -89h-331z" />
    <glyph glyph-name="Scircumflex" unicode="&#x15c;" horiz-adv-x="656" 
d="M174 739v61l76 76h154l75 -76v-61h-86l-64 64h-4l-64 -64h-87zM136 0l-97 97v118h189v-57l22 -21h157l20 20v100l-15 15h-285l-85 86v232l100 100h376l97 -97v-118h-189v57l-22 22h-152l-20 -21v-96l15 -16h285l85 -85v-236l-100 -100h-381z" />
    <glyph glyph-name="scircumflex" unicode="&#x15d;" horiz-adv-x="565" 
d="M135 550v61l76 76h154l75 -76v-61h-86l-64 64h-4l-64 -64h-87zM114 0l-83 83v65h179v-30l8 -9h126l9 9v71l-9 9h-237l-72 72v154l89 89h322l83 -83v-64h-179v30l-9 8h-116l-8 -8v-71l8 -8h237l72 -72v-156l-89 -89h-331z" />
    <glyph glyph-name="Scedilla" unicode="&#x15e;" horiz-adv-x="656" 
d="M136 0l-97 97v118h189v-57l22 -21h157l20 20v100l-15 15h-285l-85 86v232l100 100h376l97 -97v-118h-189v57l-22 22h-152l-20 -21v-96l15 -16h285l85 -85v-236l-100 -100h-148v-40h59l36 -36v-69l-36 -36h-173v59h110l3 3v29l-3 3h-57l-21 21v66h-151z" />
    <glyph glyph-name="scedilla" unicode="&#x15f;" horiz-adv-x="565" 
d="M114 0l-83 83v65h179v-30l8 -9h126l9 9v71l-9 9h-237l-72 72v154l89 89h322l83 -83v-64h-179v30l-9 8h-116l-8 -8v-71l8 -8h237l72 -72v-156l-89 -89h-116v-40h59l36 -36v-69l-36 -36h-173v59h110l3 3v29l-3 3h-57l-21 21v66h-133z" />
    <glyph glyph-name="Scaron" unicode="&#x160;" horiz-adv-x="656" 
d="M250 739l-76 76v61h87l64 -64h4l64 64h86v-61l-75 -76h-154zM136 0l-97 97v118h189v-57l22 -21h157l20 20v100l-15 15h-285l-85 86v232l100 100h376l97 -97v-118h-189v57l-22 22h-152l-20 -21v-96l15 -16h285l85 -85v-236l-100 -100h-381z" />
    <glyph glyph-name="scaron" unicode="&#x161;" horiz-adv-x="565" 
d="M211 550l-76 76v61h87l64 -64h4l64 64h86v-61l-75 -76h-154zM114 0l-83 83v65h179v-30l8 -9h126l9 9v71l-9 9h-237l-72 72v154l89 89h322l83 -83v-64h-179v30l-9 8h-116l-8 -8v-71l8 -8h237l72 -72v-156l-89 -89h-331z" />
    <glyph glyph-name="Tcommaaccent" unicode="&#x162;" horiz-adv-x="590" 
d="M238 -181v151h114v-103l-48 -48h-66zM200 0v538h-184v152h559v-152h-185v-538h-190z" />
    <glyph glyph-name="tcommaaccent" unicode="&#x163;" horiz-adv-x="440" 
d="M194 -181v151h114v-103l-48 -48h-66zM181 0l-97 97v290h-71v126h71v126h182v-126h142v-126h-142v-232l20 -21h122v-134h-227z" />
    <glyph glyph-name="Tcaron" unicode="&#x164;" horiz-adv-x="590" 
d="M218 739l-76 76v61h87l64 -64h4l64 64h86v-61l-75 -76h-154zM200 0v538h-184v152h559v-152h-185v-538h-190z" />
    <glyph glyph-name="tcaron" unicode="&#x165;" horiz-adv-x="440" 
d="M313 561v151h114v-103l-48 -48h-66zM181 0l-97 97v290h-71v126h71v126h182v-126h142v-126h-142v-232l20 -21h122v-134h-227z" />
    <glyph glyph-name="Umacron" unicode="&#x16a;" horiz-adv-x="675" 
d="M156 0l-107 106v584h190v-512l34 -34h129l34 34v512h190v-584l-106 -106h-364zM208 757v101h260v-101h-260z" />
    <glyph glyph-name="umacron" unicode="&#x16b;" horiz-adv-x="601" 
d="M140 0l-96 97v416h181v-353l25 -25h79l44 44v334h181v-513h-138l-9 70l-70 -70h-197zM169 568v101h260v-101h-260z" />
    <glyph glyph-name="Ubreve" unicode="&#x16c;" horiz-adv-x="675" 
d="M156 0l-107 106v584h190v-512l34 -34h129l34 34v512h190v-584l-106 -106h-364zM232 742l-47 47v80h109v-43l9 -9h70l9 9v43h109v-80l-48 -47h-211z" />
    <glyph glyph-name="ubreve" unicode="&#x16d;" horiz-adv-x="601" 
d="M140 0l-96 97v416h181v-353l25 -25h79l44 44v334h181v-513h-138l-9 70l-70 -70h-197zM193 553l-47 47v80h109v-43l9 -9h70l9 9v43h109v-80l-48 -47h-211z" />
    <glyph glyph-name="Uring" unicode="&#x16e;" horiz-adv-x="675" 
d="M267 730l-40 40v89l40 40h142l40 -40v-89l-40 -40h-142zM307 781h62l9 9v48l-9 10h-62l-10 -10v-48zM156 0l-107 106v584h190v-512l34 -34h129l34 34v512h190v-584l-106 -106h-364z" />
    <glyph glyph-name="uring" unicode="&#x16f;" horiz-adv-x="601" 
d="M228 541l-40 40v89l40 40h142l40 -40v-89l-40 -40h-142zM268 592h62l9 9v48l-9 10h-62l-10 -10v-48zM140 0l-96 97v416h181v-353l25 -25h79l44 44v334h181v-513h-138l-9 70l-70 -70h-197z" />
    <glyph glyph-name="Uhungarumlaut" unicode="&#x170;" horiz-adv-x="675" 
d="M156 0l-107 106v584h190v-512l34 -34h129l34 34v512h190v-584l-106 -106h-364zM214 737v66l79 79h67v-66l-79 -79h-67zM370 737v66l79 79h67v-66l-79 -79h-67z" />
    <glyph glyph-name="uhungarumlaut" unicode="&#x171;" horiz-adv-x="601" 
d="M140 0l-96 97v416h181v-353l25 -25h79l44 44v334h181v-513h-138l-9 70l-70 -70h-197zM176 548v66l79 79h67v-66l-79 -79h-67zM332 548v66l79 79h67v-66l-79 -79h-67z" />
    <glyph glyph-name="Uogonek" unicode="&#x172;" horiz-adv-x="675" 
d="M156 0l-107 106v584h190v-512l34 -34h129l34 34v512h190v-584l-106 -106h-119l-78 -78v-36l3 -3h75v-64h-141l-36 36v78l67 67h-135z" />
    <glyph glyph-name="uogonek" unicode="&#x173;" horiz-adv-x="601" 
d="M140 0l-96 97v416h181v-353l25 -25h79l44 44v334h181v-513h-28l-77 -78v-36l2 -3h75v-64h-140l-36 36v78l66 67l-9 70l-70 -70h-197z" />
    <glyph glyph-name="Ydieresis" unicode="&#x178;" horiz-adv-x="629" 
d="M220 0v203l-216 487h206l112 -302l119 302h185l-217 -487v-203h-189zM346 755v109h129v-109h-129zM153 755v109h130v-109h-130z" />
    <glyph glyph-name="Zacute" unicode="&#x179;" horiz-adv-x="567" 
d="M217 737v66l79 79h100v-66l-79 -79h-100zM27 0v117l279 421h-274v152h503v-117l-279 -420h284v-153h-513z" />
    <glyph glyph-name="zacute" unicode="&#x17a;" horiz-adv-x="497" 
d="M182 548v66l79 79h100v-66l-79 -79h-100zM22 0v100l228 284h-221v129h440v-100l-227 -283h233v-130h-453z" />
    <glyph glyph-name="Zdotaccent" unicode="&#x17b;" horiz-adv-x="567" 
d="M27 0v117l279 421h-274v152h503v-117l-279 -420h284v-153h-513zM241 740l-35 34v73l35 34h84l35 -34v-73l-35 -34h-84z" />
    <glyph glyph-name="zdotaccent" unicode="&#x17c;" horiz-adv-x="497" 
d="M22 0v100l228 284h-221v129h440v-100l-227 -283h233v-130h-453zM206 551l-35 34v73l35 34h84l35 -34v-73l-35 -34h-84z" />
    <glyph glyph-name="Zcaron" unicode="&#x17d;" horiz-adv-x="567" 
d="M206 739l-76 76v61h87l64 -64h4l64 64h86v-61l-75 -76h-154zM27 0v117l279 421h-274v152h503v-117l-279 -420h284v-153h-513z" />
    <glyph glyph-name="zcaron" unicode="&#x17e;" horiz-adv-x="497" 
d="M171 550l-76 76v61h87l64 -64h4l64 64h86v-61l-75 -76h-154zM22 0v100l228 284h-221v129h440v-100l-227 -283h233v-130h-453z" />
    <glyph glyph-name="florin" unicode="&#x192;" horiz-adv-x="497" 
d="M26 0v136h76l28 28v138h-101v138h101v144l106 106h238v-136h-127l-28 -28v-86h141v-138h-141v-196l-106 -106h-187z" />
    <glyph glyph-name="Scommaaccent" unicode="&#x218;" horiz-adv-x="656" 
d="M271 -181v151h114v-103l-48 -48h-66zM136 0l-97 97v118h189v-57l22 -21h157l20 20v100l-15 15h-285l-85 86v232l100 100h376l97 -97v-118h-189v57l-22 22h-152l-20 -21v-96l15 -16h285l85 -85v-236l-100 -100h-381z" />
    <glyph glyph-name="scommaaccent" unicode="&#x219;" horiz-adv-x="565" 
d="M231 -181v151h114v-103l-48 -48h-66zM114 0l-83 83v65h179v-30l8 -9h126l9 9v71l-9 9h-237l-72 72v154l89 89h322l83 -83v-64h-179v30l-9 8h-116l-8 -8v-71l8 -8h237l72 -72v-156l-89 -89h-331z" />
    <glyph glyph-name="uni0237" unicode="&#x237;" horiz-adv-x="283" 
d="M-59 -176v129h99l9 8v552h181v-598l-91 -91h-198z" />
    <glyph glyph-name="circumflex" unicode="&#x2c6;" horiz-adv-x="435" 
d="M65 550v61l76 76h154l75 -76v-61h-86l-64 64h-4l-64 -64h-87z" />
    <glyph glyph-name="caron" unicode="&#x2c7;" horiz-adv-x="435" 
d="M141 550l-76 76v61h87l64 -64h4l64 64h86v-61l-75 -76h-154z" />
    <glyph glyph-name="breve" unicode="&#x2d8;" horiz-adv-x="436" 
d="M112 553l-47 47v80h109v-43l9 -9h70l9 9v43h109v-80l-48 -47h-211z" />
    <glyph glyph-name="dotaccent" unicode="&#x2d9;" horiz-adv-x="284" 
d="M100 551l-35 34v73l35 34h84l35 -34v-73l-35 -34h-84z" />
    <glyph glyph-name="ring" unicode="&#x2da;" horiz-adv-x="352" 
d="M105 541l-40 40v89l40 40h142l40 -40v-89l-40 -40h-142zM145 592h62l9 9v48l-9 10h-62l-10 -10v-48z" />
    <glyph glyph-name="ogonek" unicode="&#x2db;" horiz-adv-x="307" 
d="M101 -181l-36 36v78l67 67h110l-78 -78v-36l3 -3h75v-64h-141z" />
    <glyph glyph-name="tilde" unicode="&#x2dc;" horiz-adv-x="443" 
d="M65 553v85l46 46h105l52 -52h12l6 7v45h92v-85l-46 -46h-106l-52 52h-11l-7 -6v-46h-91z" />
    <glyph glyph-name="hungarumlaut" unicode="&#x2dd;" horiz-adv-x="432" 
d="M65 548v66l79 79h67v-66l-79 -79h-67zM221 548v66l79 79h67v-66l-79 -79h-67z" />
    <glyph glyph-name="endash" unicode="&#x2013;" horiz-adv-x="439" 
d="M13 274v147h413v-147h-413z" />
    <glyph glyph-name="emdash" unicode="&#x2014;" horiz-adv-x="577" 
d="M13 274v147h551v-147h-551z" />
    <glyph glyph-name="quoteleft" unicode="&#x2018;" horiz-adv-x="234" 
d="M34 401v231l58 58h108v-66h-63l-5 -5v-52h68v-166h-166z" />
    <glyph glyph-name="quoteright" unicode="&#x2019;" horiz-adv-x="234" 
d="M200 690v-231l-58 -58h-108v66h63l5 5v52h-68v166h166z" />
    <glyph glyph-name="quotesinglbase" unicode="&#x201a;" horiz-adv-x="234" 
d="M34 -123v66h63l5 5v52h-68v166h166v-231l-58 -58h-108z" />
    <glyph glyph-name="quotedblleft" unicode="&#x201c;" horiz-adv-x="447" 
d="M34 401v231l58 58h108v-66h-63l-5 -5v-52h68v-166h-166zM247 401v231l58 58h108v-66h-63l-5 -5v-52h68v-166h-166z" />
    <glyph glyph-name="quotedblright" unicode="&#x201d;" horiz-adv-x="447" 
d="M413 690v-231l-58 -58h-108v66h63l5 5v52h-68v166h166zM200 690v-231l-58 -58h-108v66h63l5 5v52h-68v166h166z" />
    <glyph glyph-name="quotedblbase" unicode="&#x201e;" horiz-adv-x="447" 
d="M34 -123v66h63l5 5v52h-68v166h166v-231l-58 -58h-108zM247 -123v66h63l5 5v52h-68v166h166v-231l-58 -58h-108z" />
    <glyph glyph-name="dagger" unicode="&#x2020;" horiz-adv-x="331" 
d="M99 244v252h-81v108h81v86h132v-86h82v-108h-82v-252h-132z" />
    <glyph glyph-name="daggerdbl" unicode="&#x2021;" horiz-adv-x="331" 
d="M99 244v76h-81v108h81v78h-81v108h81v76h132v-76h82v-108h-82v-78h82v-108h-82v-76h-132z" />
    <glyph glyph-name="bullet" unicode="&#x2022;" horiz-adv-x="305" 
d="M88 208l-65 65v144l65 65h129l66 -65v-144l-66 -65h-129z" />
    <glyph glyph-name="ellipsis" unicode="&#x2026;" horiz-adv-x="663" 
d="M26 0v173h169v-173h-169zM247 0v173h169v-173h-169zM468 0v173h169v-173h-169z" />
    <glyph glyph-name="perthousand" unicode="&#x2030;" horiz-adv-x="1246" 
d="M88 347l-72 72v200l71 71h207l71 -71v-201l-71 -71h-206zM155 437h72l16 16v134l-16 16h-72l-17 -16v-134zM559 0l-71 71v201l71 71h206l72 -72v-200l-71 -71h-207zM626 88h72l17 16v134l-17 16h-72l-16 -16v-134zM952 0l-71 71v201l71 71h206l72 -72v-200l-71 -71h-207z
M1019 88h72l16 16v134l-16 16h-72l-16 -16v-134zM155 0l419 690h124l-419 -690h-124z" />
    <glyph glyph-name="guilsinglleft" unicode="&#x2039;" horiz-adv-x="273" 
d="M112 133l-106 211l106 212h142l-106 -212l106 -211h-142z" />
    <glyph glyph-name="guilsinglright" unicode="&#x203a;" horiz-adv-x="273" 
d="M267 344l-105 -211h-143l106 211l-106 212h143z" />
    <glyph glyph-name="fraction" unicode="&#x2044;" horiz-adv-x="542" 
d="M0 0l418 690h124l-418 -690h-124z" />
    <glyph glyph-name="Euro" unicode="&#x20ac;" horiz-adv-x="697" 
d="M14 368v90h62v126l106 106h375l106 -106v-127h-190v63l-31 31h-154l-22 -22v-71h175v-90h-175v-40h175v-90h-175v-81l22 -21h154l31 30v69h190v-129l-106 -106h-375l-106 106v132h-62v90h62v40h-62z" />
    <glyph glyph-name="servicemark" unicode="&#x2120;" horiz-adv-x="633" 
d="M63 401l-43 43v45h71v-26l8 -8h67l8 8v49l-4 4h-112l-38 38v91l45 45h137l43 -43v-46h-71v27l-8 8h-66l-8 -8v-50l4 -4h112l38 -38v-90l-45 -45h-138zM277 401v289h106l49 -225l49 225h105v-289h-65v244l-54 -244h-76l-55 243v-243h-59z" />
    <glyph glyph-name="trademark" unicode="&#x2122;" horiz-adv-x="586" 
d="M79 401v230h-65v59h201v-59h-63v-230h-73zM230 401v289h106l49 -225l49 225h105v-289h-65v244l-54 -244h-76l-55 243v-243h-59z" />
    <glyph glyph-name="minus" unicode="&#x2212;" horiz-adv-x="358" 
d="M13 272v147h332v-147h-332z" />
    <glyph glyph-name="fi" unicode="&#xfb01;" horiz-adv-x="693" 
d="M82 0v387h-64v126h64v93l84 84h232v-118h-123l-11 -12v-47h124v-126h-124v-387h-182zM641 0h-182v513h182v-513zM459 561v129h182v-129h-182z" />
    <glyph glyph-name="fl" unicode="&#xfb02;" horiz-adv-x="693" 
d="M82 0v387h-64v126h64v93l84 84h232v-118h-123l-11 -12v-47h124v-126h-124v-387h-182zM641 0h-182v690h182v-690z" />
    <glyph glyph-name="commaaccent" horiz-adv-x="244" 
d="M65 -181v151h114v-103l-48 -48h-66z" />
    <glyph glyph-name="published" horiz-adv-x="859" 
d="M172 0l-127 127v436l127 127h514l128 -127v-436l-128 -127h-514zM230 99h398l64 65v362l-64 65h-398l-64 -65v-362zM237 162v367h337l55 -55v-161l-55 -56h-204v-95h-133zM370 347h115l11 11v71l-11 11h-115v-93z" />
    <glyph glyph-name="G.alt" horiz-adv-x="685" 
d="M151 0l-106 106v478l106 106h387l100 -100v-120h-190v59l-21 22h-158l-34 -34v-351l34 -33h163l16 16v102h-140v138h330v-389h-139l-15 59l-60 -59h-273z" />
    <glyph glyph-name="Gbreve.alt" horiz-adv-x="685" 
d="M151 0l-106 106v478l106 106h387l100 -100v-120h-190v59l-21 22h-158l-34 -34v-351l34 -33h163l16 16v102h-140v138h330v-389h-139l-15 59l-60 -59h-273zM235 742l-47 47v80h109v-43l9 -9h70l9 9v43h109v-80l-48 -47h-211z" />
    <glyph glyph-name="Gcircumflex.alt" horiz-adv-x="685" 
d="M188 739v61l76 76h154l75 -76v-61h-86l-64 64h-4l-64 -64h-87zM151 0l-106 106v478l106 106h387l100 -100v-120h-190v59l-21 22h-158l-34 -34v-351l34 -33h163l16 16v102h-140v138h330v-389h-139l-15 59l-60 -59h-273z" />
    <glyph glyph-name="Gcommaaccent.alt" horiz-adv-x="685" 
d="M284 -181v151h114v-103l-48 -48h-66zM151 0l-106 106v478l106 106h387l100 -100v-120h-190v59l-21 22h-158l-34 -34v-351l34 -33h163l16 16v102h-140v138h330v-389h-139l-15 59l-60 -59h-273z" />
    <glyph glyph-name="I.alt" horiz-adv-x="321" 
d="M256 0h-191v690h191v-690z" />
    <glyph glyph-name="Iacute.alt" horiz-adv-x="321" 
d="M94 737v66l79 79h100v-66l-79 -79h-100zM256 0h-191v690h191v-690z" />
    <glyph glyph-name="Igrave.alt" horiz-adv-x="321" 
d="M256 0h-191v690h191v-690zM127 737l-79 79v66h100l79 -79v-66h-100z" />
    <glyph glyph-name="Icircumflex.alt" horiz-adv-x="321" 
d="M8 739v61l76 76h154l75 -76v-61h-86l-64 64h-4l-64 -64h-87zM256 0h-191v690h191v-690z" />
    <glyph glyph-name="Idieresis.alt" horiz-adv-x="321" 
d="M193 755v109h129v-109h-129zM0 755v109h130v-109h-130zM256 0h-191v690h191v-690z" />
    <glyph glyph-name="Idotaccent.alt" horiz-adv-x="321" 
d="M256 0h-191v690h191v-690zM118 740l-35 34v73l35 34h84l35 -34v-73l-35 -34h-84z" />
    <glyph glyph-name="Imacron.alt" horiz-adv-x="321" 
d="M256 0h-191v690h191v-690zM31 757v101h260v-101h-260z" />
    <glyph glyph-name="Iogonek.alt" horiz-adv-x="321" 
d="M256 0h-81l-78 -78v-36l3 -3h75v-64h-141l-36 36v78l67 67v690h191v-690z" />
    <glyph glyph-name="J.alt" 
d="M129 0l-106 106v196h189v-124l34 -34h98l34 34v512h190v-584l-106 -106h-333z" />
    <glyph glyph-name="Jcircumflex.alt" 
d="M319 739v61l76 76h154l75 -76v-61h-86l-64 64h-4l-64 -64h-87zM129 0l-106 106v196h189v-124l34 -34h98l34 34v512h190v-584l-106 -106h-333z" />
    <glyph glyph-name="Q.alt" horiz-adv-x="681" 
d="M151 0l-106 106v478l106 106h378l107 -106v-478l-63 -62l73 -73l-102 -103l-132 132h-261zM269 139h143l34 34v344l-34 34h-143l-34 -34v-344z" />
    <glyph glyph-name="a.alt" horiz-adv-x="613" 
d="M135 0l-96 97v320l96 96h218l67 -67l9 67h138v-513h-138l-9 67l-67 -67h-218zM245 114h98l42 42v201l-42 42h-98l-25 -25v-235z" />
    <glyph glyph-name="aacute.alt" horiz-adv-x="613" 
d="M230 548v66l79 79h100v-66l-79 -79h-100zM135 0l-96 97v320l96 96h218l67 -67l9 67h138v-513h-138l-9 67l-67 -67h-218zM245 114h98l42 42v201l-42 42h-98l-25 -25v-235z" />
    <glyph glyph-name="agrave.alt" horiz-adv-x="613" 
d="M135 0l-96 97v320l96 96h218l67 -67l9 67h138v-513h-138l-9 67l-67 -67h-218zM245 114h98l42 42v201l-42 42h-98l-25 -25v-235zM262 548l-79 79v66h100l79 -79v-66h-100z" />
    <glyph glyph-name="acircumflex.alt" horiz-adv-x="613" 
d="M143 550v61l76 76h154l75 -76v-61h-86l-64 64h-4l-64 -64h-87zM135 0l-96 97v320l96 96h218l67 -67l9 67h138v-513h-138l-9 67l-67 -67h-218zM245 114h98l42 42v201l-42 42h-98l-25 -25v-235z" />
    <glyph glyph-name="adieresis.alt" horiz-adv-x="613" 
d="M328 566v109h129v-109h-129zM135 566v109h130v-109h-130zM135 0l-96 97v320l96 96h218l67 -67l9 67h138v-513h-138l-9 67l-67 -67h-218zM245 114h98l42 42v201l-42 42h-98l-25 -25v-235z" />
    <glyph glyph-name="atilde.alt" horiz-adv-x="613" 
d="M135 0l-96 97v320l96 96h218l67 -67l9 67h138v-513h-138l-9 67l-67 -67h-218zM245 114h98l42 42v201l-42 42h-98l-25 -25v-235zM140 553v85l46 46h105l52 -52h12l6 7v45h92v-85l-46 -46h-106l-52 52h-11l-7 -6v-46h-91z" />
    <glyph glyph-name="aring.alt" horiz-adv-x="613" 
d="M225 541l-40 40v89l40 40h142l40 -40v-89l-40 -40h-142zM265 592h62l9 9v48l-9 10h-62l-10 -10v-48zM135 0l-96 97v320l96 96h218l67 -67l9 67h138v-513h-138l-9 67l-67 -67h-218zM245 114h98l42 42v201l-42 42h-98l-25 -25v-235z" />
    <glyph glyph-name="abreve.alt" horiz-adv-x="613" 
d="M135 0l-96 97v320l96 96h218l67 -67l9 67h138v-513h-138l-9 67l-67 -67h-218zM245 114h98l42 42v201l-42 42h-98l-25 -25v-235zM190 553l-47 47v80h109v-43l9 -9h70l9 9v43h109v-80l-48 -47h-211z" />
    <glyph glyph-name="amacron.alt" horiz-adv-x="613" 
d="M135 0l-96 97v320l96 96h218l67 -67l9 67h138v-513h-138l-9 67l-67 -67h-218zM245 114h98l42 42v201l-42 42h-98l-25 -25v-235zM166 568v101h260v-101h-260z" />
    <glyph glyph-name="aogonek.alt" horiz-adv-x="613" 
d="M135 0l-96 97v320l96 96h218l67 -67l9 67h138v-513h-28l-78 -78v-36l3 -3h75v-64h-141l-36 36v78l67 67l-9 67l-67 -67h-218zM245 114h98l42 42v201l-42 42h-98l-25 -25v-235z" />
    <glyph glyph-name="g.alt" horiz-adv-x="589" 
d="M104 -176l-83 82v84l69 69l-35 35v43l44 44l-62 61v195l76 76h464v-104h-82l50 -50v-113l-83 -83h-248v-48h279l82 -83v-126l-82 -82h-389zM222 264h138l11 12v117l-11 12h-138l-11 -12v-117zM205 -70h189l11 12v48l-11 12h-189l-11 -12v-48z" />
    <glyph glyph-name="gbreve.alt" horiz-adv-x="589" 
d="M104 -176l-83 82v84l69 69l-35 35v43l44 44l-62 61v195l76 76h464v-104h-82l50 -50v-113l-83 -83h-248v-48h279l82 -83v-126l-82 -82h-389zM222 264h138l11 12v117l-11 12h-138l-11 -12v-117zM205 -70h189l11 12v48l-11 12h-189l-11 -12v-48zM192 553l-47 47v80h109v-43
l9 -9h70l9 9v43h109v-80l-48 -47h-211z" />
    <glyph glyph-name="gcircumflex.alt" horiz-adv-x="589" 
d="M145 550v61l76 76h154l75 -76v-61h-86l-64 64h-4l-64 -64h-87zM104 -176l-83 82v84l69 69l-35 35v43l44 44l-62 61v195l76 76h464v-104h-82l50 -50v-113l-83 -83h-248v-48h279l82 -83v-126l-82 -82h-389zM222 264h138l11 12v117l-11 12h-138l-11 -12v-117zM205 -70h189
l11 12v48l-11 12h-189l-11 -12v-48z" />
    <glyph glyph-name="gcommaaccent.alt" horiz-adv-x="589" 
d="M355 699v-151h-114v103l48 48h66zM104 -176l-83 82v84l69 69l-35 35v43l44 44l-62 61v195l76 76h464v-104h-82l50 -50v-113l-83 -83h-248v-48h279l82 -83v-126l-82 -82h-389zM222 264h138l11 12v117l-11 12h-138l-11 -12v-117zM205 -70h189l11 12v48l-11 12h-189l-11 -12
v-48z" />
    <glyph glyph-name="at.alt1" horiz-adv-x="1091" 
d="M49 0v545l146 145h705l146 -145v-448l-97 -97h-277l-9 67l-67 -67h-240l-83 83v143l82 82h268v69l-21 21h-113l-12 -12v-33h-192v86l81 80h349l93 -93v-311h46l22 22v357l-75 75h-505l-75 -75v-494h-172zM476 117h111l36 35v57h-147l-17 -18v-56z" />
    <glyph glyph-name="at.alt2" horiz-adv-x="1043" 
d="M190 -168l-145 145v562l145 145h666l145 -145v-443l-96 -96h-262l-8 67l-67 -67h-222l-97 97v320l97 96h222l67 -67l8 67h138v-409h46l22 22v366l-75 75h-500l-75 -75v-466l75 -75h499v-119h-583zM455 114h103l42 42v201l-42 42h-103l-24 -25v-235z" />
    <glyph glyph-name="at.alt3" horiz-adv-x="1109" 
d="M49 0v545l146 145h724l145 -145v-448l-97 -97h-277l-9 67l-67 -67h-242l-93 93v333l93 93h242l67 -68l9 68h137v-404h45l22 22v357l-75 75h-523l-75 -75v-494h-172zM495 118h102l42 43v197l-42 42h-102l-28 -28v-225z" />
    <glyph glyph-name="ampersand.alt" horiz-adv-x="676" 
d="M136 0l-96 96v199l73 73l-71 71v155l95 96h380l97 -97v-98h-190v42l-21 22h-148l-24 -24v-66l9 -9l211 -104v59h190v-325l-90 -90h-415zM253 131h182l16 16v31l-203 98l-18 -19v-102z" />
    <glyph glyph-name="ordfeminine.alt" horiz-adv-x="395" 
d="M86 343l-62 62v223l62 62h142l43 -43l8 43h92v-347h-92l-8 43l-43 -43h-142zM160 424h72l19 20v145l-19 20h-72l-17 -17v-151z" />
    <glyph glyph-name="zero.tabular" 
d="M144 0l-106 106v478l106 106h329l106 -106v-478l-106 -106h-329zM243 131h128l30 31v366l-30 31h-128l-31 -31v-366z" />
    <glyph glyph-name="one.tabular" 
d="M84 0v131h145v429h-145v130h325v-559h141v-131h-466z" />
    <glyph glyph-name="two.tabular" 
d="M51 0v305l85 86h248l12 12v142l-13 14h-139l-14 -14v-71h-177v119l97 97h324l100 -100v-250l-85 -85h-248l-12 -12v-104h345v-139h-523z" />
    <glyph glyph-name="three.tabular" 
d="M128 0l-95 96v124h177v-77l18 -18h156l20 20v119l-21 21h-229v131h227l22 21v106l-20 20h-155l-18 -18v-72h-177v121l95 96h357l96 -96v-171l-71 -70l72 -72v-185l-96 -96h-358z" />
    <glyph glyph-name="four.tabular" 
d="M369 0v171h-345v102l106 417h167l-82 -382h154v382h178v-382h52v-137h-52v-171h-178z" />
    <glyph glyph-name="five.tabular" 
d="M142 0l-98 97v117h178v-65l19 -19h141l20 20v161l-15 16h-139l-36 -36h-168v399h524v-135h-346v-143l45 45h221l92 -93v-264l-100 -100h-338z" />
    <glyph glyph-name="six.tabular" 
d="M139 0l-100 100v490l100 100h344l97 -97v-105h-178v56l-18 18h-140l-27 -27v-151l50 51h216l97 -97v-238l-100 -100h-341zM238 129h143l21 21v135l-21 21h-142l-22 -23v-133z" />
    <glyph glyph-name="seven.tabular" 
d="M199 0v258l164 288h-317v144h528v-118l-197 -331v-241h-178z" />
    <glyph glyph-name="eight.tabular" 
d="M130 0l-96 96v180l77 77l-76 75v166l96 96h354l96 -96v-166l-75 -75l77 -77v-180l-96 -96h-357zM235 123h146l24 24v120l-24 23h-146l-23 -23v-120zM237 411h143l23 24v109l-23 24h-143l-24 -24v-109z" />
    <glyph glyph-name="nine.tabular" 
d="M134 0l-98 97v110h178v-61l19 -18h140l27 27v156l-50 -50h-217l-97 97v232l101 100h340l101 -100v-490l-101 -100h-343zM236 390h141l23 22v128l-21 21h-143l-22 -21v-129z" />
    <glyph glyph-name="plus.tabular" 
d="M93 277v137h144v135h143v-135h145v-137h-145v-139h-143v139h-144z" />
    <glyph glyph-name="minus.tabular" 
d="M125 272v147h367v-147h-367z" />
    <glyph glyph-name="multiply.tabular" 
d="M198 136l-98 98l110 110l-110 111l98 98l110 -111l111 111l98 -98l-111 -111l111 -110l-98 -98l-111 110z" />
    <glyph glyph-name="divide.tabular" 
d="M242 119v115h133v-115h-133zM104 274v140h408v-140h-408zM242 457v114h133v-114h-133z" />
    <glyph glyph-name="equal.tabular" 
d="M123 373v137h371v-137h-371zM123 174v137h371v-137h-371z" />
    <glyph glyph-name="greater.tabular" 
d="M525 261l-412 -158v156l270 86l-270 86v156l412 -157v-169z" />
    <glyph glyph-name="less.tabular" 
d="M504 103l-412 158v169l412 157v-156l-270 -86l270 -86v-156z" />
    <glyph glyph-name="numbersign.tabular" 
d="M128 145v101h-80v109h80v125h-80v110h80v100h131v-100h99v100h131v-100h80v-110h-80v-125h80v-109h-80v-101h-131v101h-99v-101h-131zM259 355h99v125h-99v-125z" />
    <glyph glyph-name="dollar.tabular" 
d="M133 19l-94 93v105h178v-54l15 -15h150l17 17v95l-15 16h-256l-85 85v214l96 97h86v101h168v-101h89l93 -94v-105h-177v54l-16 16h-144l-18 -18v-92l16 -15h256l85 -86v-217l-97 -96h-87v-102h-168v102h-92z" />
    <glyph glyph-name="cent.tabular" 
d="M140 71l-103 102v344l103 103h90v89h168v-89h87l103 -103v-119h-178v65l-25 25h-146l-24 -25v-240l24 -24h146l25 24v70h178v-120l-103 -102h-87v-90h-168v90h-90z" />
    <glyph glyph-name="sterling.tabular" 
d="M37 0v133l44 44v95h-45v130h45v182l106 106h293l106 -106v-131h-178v80l-25 25h-96l-28 -28v-128h177v-130h-177v-89l-41 -41h368v-142h-549z" />
    <glyph glyph-name="yen.tabular" 
d="M55 228v88h119l-151 374h194l99 -297l106 297h172l-152 -374h119v-88h-155l-9 -22v-13h164v-88h-164v-105h-178v105h-164v88h164v13l-9 22h-155z" />
    <glyph glyph-name="florin.tabular" 
d="M69 0v136h100l28 28v138h-125v138h125v144l107 106h248v-136h-149l-28 -28v-86h162v-138h-162v-196l-106 -106h-200z" />
    <glyph glyph-name="Euro.tabular" 
d="M24 368v90h39v126l106 106h319l106 -106v-127h-178v74l-27 27h-130l-18 -18v-82h141v-90h-141v-40h141v-90h-141v-91l18 -18h130l27 27v79h178v-129l-106 -106h-319l-106 106v132h-39v90h39v40h-39z" />
    <glyph glyph-name="section.tabular" 
d="M136 -124l-97 98v113h178v-63l18 -18h148l17 17v114h-295l-63 62v53h536v-275l-101 -101h-341zM42 314v276l101 100h338l95 -94v-114h-178v61l-18 18h-143l-17 -17v-115h296l62 -62v-53h-536z" />
    <glyph glyph-name="space.tabular" horiz-adv-x="308" 
 />
    <glyph glyph-name="colon.tabular" horiz-adv-x="308" 
d="M70 0v173h169v-173h-169zM70 278v173h169v-173h-169z" />
    <glyph glyph-name="semicolon.tabular" horiz-adv-x="308" 
d="M70 -123v66h66l5 5v52h-71v173h169v-238l-58 -58h-111zM70 278v173h169v-173h-169z" />
    <glyph glyph-name="comma.tabular" horiz-adv-x="308" 
d="M69 -123v66h66l5 5v52h-71v173h169v-238l-58 -58h-111z" />
    <glyph glyph-name="period.tabular" horiz-adv-x="308" 
d="M70 0v173h169v-173h-169z" />
    <glyph glyph-name="parenleft.tabular" horiz-adv-x="322" 
d="M150 -71l-100 100v631l100 100h152v-133h-50l-27 -27v-511l27 -27h50v-133h-152z" />
    <glyph glyph-name="parenright.tabular" horiz-adv-x="322" 
d="M271 29l-99 -100h-153v133h50l27 27v511l-27 27h-50v133h153l99 -100v-631z" />
    <glyph glyph-name="bracketleft.tabular" horiz-adv-x="322" 
d="M54 -71v831h251v-133h-76v-565h76v-133h-251z" />
    <glyph glyph-name="bracketright.tabular" horiz-adv-x="322" 
d="M267 760v-831h-251v133h77v565h-77v133h251z" />
    <glyph glyph-name="braceleft.tabular" horiz-adv-x="322" 
d="M156 -71l-99 100v236l-12 12h-49v148h49l12 12v223l99 100h155v-133h-53l-26 -27v-188l-60 -60l60 -60v-203l26 -27h53v-133h-155z" />
    <glyph glyph-name="braceright.tabular" horiz-adv-x="322" 
d="M265 29l-99 -100h-155v133h53l27 27v203l60 60l-60 60v188l-27 27h-53v133h155l99 -100v-223l12 -12h49v-148h-49l-12 -12v-236z" />
    <glyph glyph-name="zero.numerator" horiz-adv-x="426" 
d="M91 311l-60 60v259l60 60h244l60 -60v-259l-60 -60h-244zM175 404h76l16 16v161l-16 17h-76l-16 -17v-161z" />
    <glyph glyph-name="one.numerator" horiz-adv-x="343" 
d="M23 311v98h90v183h-88v98h216v-281h90v-98h-308z" />
    <glyph glyph-name="two.numerator" horiz-adv-x="417" 
d="M30 311v166l55 56h168l6 7v53l-7 8h-83l-10 -9v-25h-128v63l60 60h236l60 -60v-128l-55 -55h-167l-7 -7v-36h229v-93h-357z" />
    <glyph glyph-name="three.numerator" horiz-adv-x="414" 
d="M80 311l-60 60v58h128v-23l9 -8h94l9 8v46l-9 9h-149v83h148l9 9v43l-9 8h-93l-8 -8v-21h-129v55l60 60h247l60 -60v-81l-46 -46l47 -47v-85l-60 -60h-248z" />
    <glyph glyph-name="four.numerator" horiz-adv-x="427" 
d="M247 311v84h-234v70l75 225h119l-57 -202h97v202h126v-202h36v-93h-36v-84h-126z" />
    <glyph glyph-name="five.numerator" horiz-adv-x="422" 
d="M92 311l-60 60v63h129v-29l9 -9h86l9 8v71l-9 8h-80l-20 -20h-123v227h351v-89h-223v-68l29 29h146l57 -57v-134l-60 -60h-241z" />
    <glyph glyph-name="six.numerator" horiz-adv-x="427" 
d="M91 311l-60 60v259l60 60h244l60 -60v-52h-127v19l-11 11h-85l-13 -13v-74l29 29h159l50 -51v-128l-60 -60h-246zM171 395h87l12 12v63l-12 11h-84l-15 -14v-60z" />
    <glyph glyph-name="seven.numerator" horiz-adv-x="381" 
d="M113 311v131l103 145h-205v103h359v-80l-129 -183v-116h-128z" />
    <glyph glyph-name="eight.numerator" horiz-adv-x="430" 
d="M87 311l-60 60v86l48 48l-47 46v79l60 60h254l60 -60v-79l-47 -46l48 -48v-86l-60 -60h-256zM165 392h100l10 10v55l-10 10h-100l-10 -10v-55zM166 541h98l10 10v49l-10 10h-98l-10 -10v-49z" />
    <glyph glyph-name="nine.numerator" horiz-adv-x="427" 
d="M92 311l-60 60v57h126v-23l11 -11h86l13 13v76l-27 -27h-161l-50 51v123l60 60h246l60 -60v-259l-60 -60h-244zM169 525h84l15 14v56l-12 11h-87l-12 -11v-59z" />
    <glyph glyph-name="zero.denominator" horiz-adv-x="426" 
d="M91 0l-60 60v259l60 60h244l60 -60v-259l-60 -60h-244zM175 93h76l16 16v161l-16 17h-76l-16 -17v-161z" />
    <glyph glyph-name="one.denominator" horiz-adv-x="343" 
d="M23 0v98h90v183h-88v98h216v-281h90v-98h-308z" />
    <glyph glyph-name="two.denominator" horiz-adv-x="417" 
d="M30 0v166l55 56h168l6 7v53l-7 8h-83l-10 -9v-25h-128v63l60 60h236l60 -60v-128l-55 -55h-167l-7 -7v-36h229v-93h-357z" />
    <glyph glyph-name="three.denominator" horiz-adv-x="414" 
d="M80 0l-60 60v58h128v-23l9 -8h94l9 8v46l-9 9h-149v83h148l9 9v43l-9 8h-93l-8 -8v-21h-129v55l60 60h247l60 -60v-81l-46 -46l47 -47v-85l-60 -60h-248z" />
    <glyph glyph-name="four.denominator" horiz-adv-x="427" 
d="M247 0v84h-234v70l75 225h119l-57 -202h97v202h126v-202h36v-93h-36v-84h-126z" />
    <glyph glyph-name="five.denominator" horiz-adv-x="422" 
d="M92 0l-60 60v63h129v-29l9 -9h86l9 8v71l-9 8h-80l-20 -20h-123v227h351v-89h-223v-68l29 29h146l57 -57v-134l-60 -60h-241z" />
    <glyph glyph-name="six.denominator" horiz-adv-x="427" 
d="M91 0l-60 60v259l60 60h244l60 -60v-52h-127v19l-11 11h-85l-13 -13v-74l29 29h159l50 -51v-128l-60 -60h-246zM171 84h87l12 12v63l-12 11h-84l-15 -14v-60z" />
    <glyph glyph-name="seven.denominator" horiz-adv-x="381" 
d="M113 0v131l103 145h-205v103h359v-80l-129 -183v-116h-128z" />
    <glyph glyph-name="eight.denominator" horiz-adv-x="430" 
d="M87 0l-60 60v86l48 48l-47 46v79l60 60h254l60 -60v-79l-47 -46l48 -48v-86l-60 -60h-256zM165 81h100l10 10v55l-10 10h-100l-10 -10v-55zM166 230h98l10 10v49l-10 10h-98l-10 -10v-49z" />
    <glyph glyph-name="nine.denominator" horiz-adv-x="427" 
d="M92 0l-60 60v57h126v-23l11 -11h86l13 13v76l-27 -27h-161l-50 51v123l60 60h246l60 -60v-259l-60 -60h-244zM169 214h84l15 14v56l-12 11h-87l-12 -11v-59z" />
    </font>
</defs>
</svg>
